<svg xmlns="http://www.w3.org/2000/svg" viewBox="0 0 1136 922" width="1136" height="922">
	<defs>
		<clipPath clipPathUnits="userSpaceOnUse" id="cp1">
			<path d="M-804 -479L1279 -479L1279 1084L-804 1084Z"/>
		</clipPath>
	</defs>
	<style>
		tspan { white-space:pre }
		.shp0 { fill: #076a4c } 
		.shp1 { fill: #b8cfdf } 
		.shp2 { fill: #956458 } 
		.shp3 { fill: #6b4b50 } 
		.shp4 { fill: #233753 } 
		.shp5 { fill: #dee9f3 } 
		.shp6 { fill: #ff2e40 } 
		.shp7 { fill: #bfd2e6 } 
		.shp8 { fill: #ffffff } 
		.shp9 { fill: #f4f8fc } 
		.shp10 { fill: #799fc0 } 
		.shp11 { fill: #d42a30 } 
		.shp12 { fill: #4a3447 } 
		.shp13 { fill: #25334a } 
		.shp14 { fill: #aec7db } 
		.shp15 { fill: #ff2e1c } 
		.shp16 { fill: #ffba98 } 
		.shp17 { fill: #15407f } 
		.shp18 { fill: #163465 } 
		.shp19 { fill: #c38e7b } 
		.shp20 { fill: #9a1f37 } 
		.shp21 { fill: #1f355c } 
		.shp22 { fill: #906a68 } 
		.shp23 { fill: #152e6b } 
		.shp24 { fill: #9bb9d2 } 
		.shp25 { fill: #129068 } 
		.shp26 { fill: #04725e } 
		.shp27 { fill: #d2e0ee } 
	</style>
	<g id="Page 1" clip-path="url(#cp1)">
		<path id="Path 3" class="shp0" d="M938.42 735.48C938.42 735.48 957.35 681.52 963.6 667.69C969.85 653.87 981.12 640.13 1010.13 644.97C1039.14 649.8 1054.45 657.85 1075.4 653.01C1096.35 648.18 1091.11 676.66 1085.47 687.94C1080.06 698.76 1073.16 713.29 1051.98 711.6C1050.43 711.48 1049.21 710.22 1049.21 708.66C1049.21 708.66 1047.05 692.29 1047.05 684.71C1047.05 679.77 1043.27 679.77 1043.27 684.74C1043.27 690.43 1043.27 705.09 1043.27 705.09C1043.27 707.33 1040.87 708.75 1038.91 707.66C1030.25 702.85 1017.97 696.77 1006.81 681.89C998.49 670.81 974.23 661.35 969.7 667.69C965.17 674.04 959.98 689.87 956.96 703.77C953.94 717.67 953.93 735.48 953.93 735.48L938.42 735.48Z"/>
		<path id="Path 4" class="shp1" d="M176.08 864.52L185.34 864.52L220.39 653.65L207.76 651.46L176.08 864.52ZM248.59 864.52L257.46 864.52L290.49 655.76L275.99 655.76L248.59 864.52ZM358.17 864.52L367.84 864.52L335.21 654.27L321.91 654.55L358.17 864.52Z"/>
		<path id="Path 5" class="shp2" d="M571.41 136.4C575.04 123.91 577.46 90.47 577.46 90.47L571.82 77.17L523.88 77.17L491.65 112.22L496.08 136.4C498.55 141.71 501.86 146.93 505.85 151.63C505.84 157.31 505.18 168.25 500.53 173.78C494.08 181.43 468.9 184.44 467.69 184.62C464.44 185.09 508.18 290.2 508.18 290.2L541.22 290.2L567.81 198.35C567.81 198.35 564.99 186.67 553.71 183.85C546.91 182.15 544.8 175.04 544.2 169.66C563.26 167.88 567.92 148.43 571.41 136.4Z"/>
		<path id="Path 6" fill-rule="evenodd" class="shp1" d="M497.29 176.45C497.3 176.44 497.31 176.44 497.32 176.43C497.31 176.44 497.3 176.44 497.29 176.45ZM497.41 176.37C497.43 176.36 497.44 176.35 497.45 176.35C497.44 176.36 497.43 176.36 497.41 176.37ZM498.27 175.8C498.25 175.81 498.24 175.82 498.22 175.84C498.23 175.82 498.25 175.81 498.27 175.8ZM498.5 175.63C498.49 175.64 498.47 175.65 498.45 175.67C498.47 175.65 498.49 175.64 498.5 175.63ZM499.64 174.7C499.67 174.67 499.7 174.64 499.73 174.61C499.7 174.64 499.67 174.67 499.64 174.7ZM499.97 174.38C499.98 174.37 500 174.35 500.01 174.34C500 174.35 499.98 174.37 499.97 174.38ZM500.1 174.24C500.12 174.23 500.13 174.22 500.14 174.2C500.13 174.22 500.12 174.23 500.1 174.24ZM500.19 174.15C500.18 174.17 500.16 174.18 500.15 174.2C500.16 174.18 500.18 174.17 500.19 174.15ZM500.28 174.06C500.31 174.03 500.33 174 500.36 173.97C500.33 174 500.31 174.03 500.28 174.06ZM496.42 176.96C496.42 176.96 496.42 176.96 496.42 176.96C496.42 176.96 496.42 176.96 496.42 176.96ZM496.49 176.92C496.49 176.92 496.49 176.92 496.49 176.92C496.49 176.92 496.49 176.92 496.49 176.92ZM496.56 176.88C496.56 176.88 496.56 176.88 496.57 176.88C496.56 176.88 496.56 176.88 496.56 176.88ZM496.63 176.84C496.63 176.84 496.63 176.84 496.64 176.84C496.63 176.84 496.63 176.84 496.63 176.84ZM496.69 176.81C496.7 176.8 496.7 176.8 496.71 176.8C496.7 176.8 496.7 176.8 496.69 176.81ZM496.76 176.77C496.76 176.76 496.77 176.76 496.78 176.76C496.77 176.76 496.76 176.76 496.76 176.77ZM496.83 176.73C496.83 176.72 496.84 176.72 496.84 176.72C496.84 176.72 496.83 176.72 496.83 176.73ZM496.89 176.69C496.9 176.69 496.91 176.68 496.91 176.68C496.91 176.68 496.9 176.68 496.89 176.69ZM496.96 176.65C496.97 176.64 496.98 176.64 496.98 176.64C496.97 176.64 496.97 176.64 496.96 176.65ZM497.03 176.61C497.03 176.6 497.04 176.6 497.05 176.59C497.04 176.6 497.03 176.6 497.03 176.61ZM497.09 176.57C497.1 176.56 497.11 176.56 497.12 176.55C497.11 176.56 497.1 176.56 497.09 176.57ZM497.15 176.53C497.16 176.52 497.18 176.52 497.19 176.51C497.18 176.52 497.16 176.52 497.15 176.53ZM497.22 176.49C497.23 176.48 497.24 176.48 497.25 176.47C497.24 176.48 497.23 176.48 497.22 176.49ZM497.35 176.41C497.36 176.4 497.37 176.4 497.38 176.39C497.37 176.4 497.36 176.4 497.35 176.41ZM497.48 176.33C497.49 176.32 497.5 176.31 497.51 176.31C497.5 176.31 497.49 176.32 497.48 176.33ZM497.54 176.29C497.55 176.28 497.57 176.27 497.58 176.26C497.57 176.27 497.55 176.28 497.54 176.29ZM497.6 176.25C497.62 176.24 497.63 176.23 497.64 176.22C497.63 176.23 497.62 176.24 497.6 176.25ZM497.67 176.21C497.68 176.2 497.69 176.19 497.71 176.18C497.69 176.19 497.68 176.2 497.67 176.21ZM497.73 176.17C497.74 176.16 497.76 176.15 497.77 176.14C497.76 176.15 497.74 176.16 497.73 176.17ZM497.79 176.13C497.81 176.12 497.82 176.11 497.84 176.1C497.82 176.11 497.81 176.12 497.79 176.13ZM497.85 176.09C497.87 176.08 497.88 176.06 497.9 176.05C497.88 176.06 497.87 176.08 497.85 176.09ZM497.91 176.04C497.93 176.03 497.95 176.02 497.96 176.01C497.95 176.02 497.93 176.03 497.91 176.04ZM497.97 176C497.99 175.99 498.01 175.98 498.02 175.97C498.01 175.98 497.99 175.99 497.97 176ZM498.04 175.96C498.05 175.95 498.07 175.94 498.09 175.93C498.07 175.94 498.05 175.95 498.04 175.96ZM498.1 175.92C498.11 175.91 498.13 175.9 498.15 175.88C498.13 175.9 498.11 175.91 498.1 175.92ZM498.16 175.88C498.17 175.86 498.19 175.85 498.21 175.84C498.19 175.85 498.17 175.86 498.16 175.88ZM498.27 175.79C498.29 175.78 498.31 175.77 498.33 175.76C498.31 175.77 498.29 175.78 498.27 175.79ZM498.34 175.75C498.35 175.74 498.37 175.73 498.39 175.71C498.37 175.73 498.35 175.74 498.34 175.75ZM498.39 175.71C498.41 175.7 498.43 175.68 498.45 175.67C498.43 175.68 498.41 175.7 498.39 175.71ZM498.51 175.62C498.53 175.61 498.54 175.6 498.56 175.58C498.54 175.6 498.53 175.61 498.51 175.62ZM498.57 175.58C498.59 175.57 498.6 175.55 498.62 175.54C498.6 175.55 498.59 175.57 498.57 175.58ZM498.62 175.54C498.64 175.53 498.66 175.51 498.68 175.5C498.66 175.51 498.64 175.53 498.62 175.54ZM498.68 175.5C498.7 175.48 498.72 175.47 498.74 175.45C498.72 175.47 498.7 175.48 498.68 175.5ZM498.74 175.45C498.76 175.44 498.77 175.43 498.79 175.41C498.77 175.43 498.76 175.44 498.74 175.45ZM498.79 175.41C498.81 175.39 498.83 175.38 498.85 175.37C498.83 175.38 498.81 175.39 498.79 175.41ZM498.85 175.37C499.11 175.16 499.35 174.96 499.58 174.75C499.35 174.96 499.11 175.16 498.85 175.37ZM499.59 174.75C499.6 174.73 499.62 174.72 499.63 174.7C499.62 174.72 499.6 174.73 499.59 174.75ZM499.73 174.61C499.8 174.55 499.86 174.49 499.92 174.43C499.86 174.49 499.8 174.55 499.73 174.61ZM499.92 174.43C499.94 174.41 499.95 174.4 499.97 174.39C499.95 174.4 499.94 174.41 499.92 174.43ZM500.01 174.34C500.04 174.31 500.07 174.28 500.1 174.25C500.07 174.28 500.04 174.31 500.01 174.34ZM500.19 174.15C500.22 174.12 500.25 174.09 500.28 174.06C500.25 174.09 500.22 174.12 500.19 174.15ZM500.36 173.96C500.38 173.95 500.39 173.93 500.41 173.92C500.39 173.93 500.38 173.95 500.36 173.96ZM500.41 173.92C500.42 173.9 500.43 173.89 500.44 173.88C500.43 173.89 500.42 173.9 500.41 173.92ZM500.45 173.87C500.46 173.86 500.47 173.84 500.48 173.83C500.47 173.84 500.46 173.86 500.45 173.87ZM500.49 173.82C500.5 173.81 500.51 173.79 500.53 173.78C500.51 173.79 500.5 173.81 500.49 173.82Z"/>
		<path id="Path 7" fill-rule="evenodd" class="shp3" d="M485.93 189.38C510.9 178.13 513.5 162.97 512.71 149.36C514.07 142.47 515.01 134.38 515.01 134.38C515.01 134.38 514.46 134.53 513.69 134.53C512.78 134.53 511.56 134.32 510.58 133.42C508.77 131.76 505.14 124.06 504.84 117.56C504.58 111.95 507.25 109.04 511.3 109.04C511.94 109.04 512.6 109.11 513.3 109.25C518.44 110.31 517.98 118.01 521.31 119.98C521.94 120.35 522.49 120.51 522.99 120.51C525.12 120.51 526.13 117.56 526.75 115.6C527.5 113.18 526.34 108.74 524.08 105.11C521.81 101.49 522.9 100.28 526.09 99.97C526.27 99.96 526.45 99.95 526.61 99.95C527.36 99.95 527.97 100.1 528.5 100.25C529.03 100.41 529.49 100.56 529.91 100.56C530.66 100.56 531.32 100.1 532.18 98.37C534 94.74 529.01 93.31 528.71 90C528.41 86.67 531.76 84.28 534.46 84.28C536.22 84.28 537.71 85.31 537.67 87.79C537.62 91.81 536.89 93.11 539.31 95.82C540.35 96.99 541.87 97.59 543.33 97.59C545.27 97.59 547.1 96.53 547.53 94.38C548.29 90.6 548.5 87.04 551.97 86.14C552.34 86.04 552.68 86 553 86C555.76 86 557.07 89.24 558.02 91.28C558.97 93.32 560.46 95.73 563.08 95.73C563.36 95.73 563.65 95.7 563.96 95.64C567.13 95.04 565.57 90.52 567.69 87.8C568.74 86.45 571.01 85.25 572.97 85.25C574.95 85.25 576.6 86.49 576.3 90.07C575.84 95.43 572.88 100.2 571.79 104.68C567.75 107.44 564.39 108.15 559.69 108.15C555.51 108.15 550.29 107.59 542.61 107.43C542.29 107.42 541.97 107.42 541.67 107.42C524.34 107.42 537.54 118.71 535.56 136.13C533.54 153.86 518.65 157.4 529.92 167.96C536.13 173.78 530.2 180.42 525.33 184.02C523.67 185.26 520.43 185.45 516.23 185.45C515.3 185.45 514.33 185.44 513.32 185.43C512.31 185.42 511.26 185.41 510.18 185.41C502.92 185.41 494.18 185.82 485.93 189.38ZM500.58 173.71C500.56 173.74 500.55 173.76 500.53 173.78C500.55 173.75 500.56 173.74 500.58 173.71ZM500.64 173.64C500.66 173.62 500.67 173.6 500.69 173.58C500.67 173.6 500.66 173.62 500.64 173.64ZM500.59 173.71C500.6 173.69 500.62 173.67 500.63 173.65C500.62 173.67 500.6 173.69 500.59 173.71ZM500.7 173.57C500.71 173.55 500.72 173.54 500.74 173.52C500.72 173.54 500.71 173.55 500.7 173.57ZM500.75 173.51C500.76 173.49 500.77 173.47 500.79 173.45C500.77 173.47 500.76 173.49 500.75 173.51ZM500.8 173.44C500.81 173.42 500.83 173.4 500.84 173.39C500.83 173.4 500.81 173.42 500.8 173.44ZM500.86 173.36C500.87 173.35 500.88 173.34 500.88 173.33C500.88 173.34 500.87 173.35 500.86 173.36ZM500.92 173.28C500.93 173.28 500.93 173.27 500.93 173.27C500.93 173.27 500.93 173.28 500.92 173.28Z"/>
		<path id="Path 8" class="shp4" d="M515.01 134.38C515.01 134.38 512.65 154.7 509.98 158.35C507.3 162 500.48 161.81 501.75 156.45C503.03 151.1 504.85 148.79 501.6 147.6C498.34 146.42 497.44 150.65 492.91 150.95C488.37 151.25 494.87 146.87 492.91 144.76C491.94 143.72 491.09 144.35 490.12 144.98C489.1 145.64 487.95 146.29 486.41 145.06C483.39 142.64 491.24 142.04 490.79 138.41C490.34 134.78 468.88 138.56 465.86 138.71C462.84 138.86 458.76 134.03 462.84 132.52C466.92 131.01 468.73 131.16 469.34 128.59C469.61 127.43 468.04 127.81 466.1 128.19C463.73 128.64 460.8 129.1 459.97 126.78C458.46 122.55 467.67 124.06 466.77 118.47C466.29 115.52 462.95 115.77 459.61 116.01C456.63 116.24 453.65 116.46 452.72 114.39C450.75 110.01 459.06 109.86 459.97 104.87C460.88 99.89 450.75 96.71 451.21 91.43C451.48 88.25 455.07 88.51 458.32 88.76C460.49 88.93 462.51 89.1 463.29 88.25C465.26 86.14 456.19 79.49 457.4 74.81C458.61 70.12 467.67 73.9 469.19 68.31C470.7 62.72 462.09 57.89 458.16 54.56C454.23 51.24 459.97 41.27 465.71 45.65C471.45 50.03 472.96 49.88 474.47 48.37C475.99 46.86 473.26 39.76 474.47 37.64C475.68 35.53 480.06 37.19 482.03 35.53C483.99 33.87 486.86 30.39 487.16 25.86C487.46 21.33 479.01 21.93 478.1 15.28C477.19 8.64 485.35 4.71 489.13 8.64C492.91 12.56 492.07 20.19 496.53 20.42C500.99 20.65 500.16 17.4 503.03 14.23C504.63 12.45 505.81 13.04 506.76 13.62C507.51 14.09 508.13 14.55 508.69 13.85C509.98 12.26 504.39 7.43 509.98 1.84C515.57 -3.75 518.89 5.46 524.03 9.39C529.16 13.32 536.87 10.45 541.7 10.45C546.54 10.45 545.02 17.1 546.54 19.21C548.05 21.33 547.9 17.55 552.58 13.77C557.26 10 565.8 11.89 567.23 16.64C568.67 21.4 566.48 25.25 568.67 27.37C569.6 28.27 572.21 27.69 575.18 27.12C579.2 26.34 583.88 25.56 585.97 28.43C589.59 33.41 577.36 40.36 578.87 44.14C580.38 47.92 593.52 43.84 595.79 48.67C598.05 53.51 586.11 55.59 588.64 62.81C590.2 67.28 596.79 64.39 597.7 69.64C598.85 76.33 590.94 73.25 589.73 77.98C588.52 82.71 594.12 80.85 595.03 92.94C595.94 105.02 585.97 98.53 583.4 103.51C580.83 108.5 584 119.38 583.55 124.21C583.1 129.04 577.16 139.76 573.58 140.52C570 141.29 569.95 139.01 569.8 133.88C569.65 128.74 572.22 114.69 571.46 108.95C570.71 103.21 575.69 97.17 576.3 90.07C576.9 82.97 569.8 85.08 567.69 87.8C565.57 90.52 567.13 95.04 563.96 95.64C560.79 96.25 559.08 93.54 558.02 91.28C556.96 89.01 555.45 85.23 551.97 86.14C548.5 87.04 548.29 90.6 547.53 94.38C546.78 98.15 541.73 98.54 539.31 95.82C536.89 93.11 537.62 91.81 537.67 87.79C537.76 81.54 528.21 84.49 528.71 90C529.01 93.31 534 94.74 532.18 98.37C530.83 101.09 529.96 100.67 528.5 100.25C527.85 100.07 527.08 99.88 526.09 99.97C522.9 100.28 521.81 101.49 524.08 105.11C526.34 108.74 527.5 113.18 526.75 115.6C525.99 118.01 524.63 121.94 521.31 119.98C517.98 118.01 518.44 110.31 513.3 109.25C508.16 108.2 504.54 111.07 504.84 117.56C505.14 124.06 508.77 131.76 510.58 133.42C512.39 135.09 515.01 134.38 515.01 134.38Z"/>
		<path id="Path 9" class="shp2" d="M618.68 489.11L620.06 498.37C621.7 509.37 631.15 517.51 642.27 517.51L702.68 517.51C702.68 517.51 703.29 508.44 690.9 505.73C678.51 503.01 665.21 504.82 649.5 493.34C633.79 481.86 637.11 478.53 637.11 478.53L618.68 489.11Z"/>
		<path id="Path 10" class="shp5" d="M617.26 498.02L644.44 487.43C644.44 487.43 622.7 373.08 614.24 357.97C605.78 342.87 594.72 245.04 592.36 226.98C589.34 203.81 572.67 192.17 568.92 192.4L556.83 321.71C556.83 321.71 579.19 355.56 582.21 370.06C585.24 384.56 591.28 417.8 596.72 432.91C602.16 448.01 617.26 498.02 617.26 498.02Z"/>
		<path id="Path 11" class="shp1" d="M473.06 840.46L473.06 865.73L555.94 865.73C555.94 865.73 559.97 859.68 541.84 856.46C523.71 853.24 518.87 852.43 512.03 848.4C505.18 844.37 494.7 830.27 494.7 830.27L473.06 832.69L473.06 840.46ZM540.23 843.17L540.23 865.73L630.07 865.73C630.07 865.73 625.23 855.66 606.3 854.25C587.36 852.83 570.69 840.79 570.69 840.79L570.69 834.71L540.23 836.32L540.23 843.17Z"/>
		<path id="Path 12" class="shp6" d="M411.35 450.2C411.35 450.2 411.81 485.07 423.9 522.93C435.98 560.8 454.51 608.34 456.12 634.93C457.74 661.52 453.71 705.84 457.74 736.46C461.77 767.07 471.23 826.7 471.23 834.55C471.23 842.41 505.68 840.6 505.68 834.55C505.68 828.51 514.14 635.74 514.14 635.74L514.14 537.08L548.59 606.13C548.59 606.13 539.52 651.45 541.94 709.46C544.35 767.47 534.99 776.84 534.99 776.84C534.99 776.84 539.52 827.91 539.52 835.76C539.52 843.62 577.59 842.41 576.99 835.76C576.38 829.11 609.01 635.13 612.04 614.59C615.06 594.04 605.09 537.54 598.44 511.25C591.79 484.96 573.91 448.72 573.91 448.72L411.35 450.2Z"/>
		<path id="Path 13" class="shp7" d="M598.52 438.11C597.85 436.11 597.24 434.35 596.72 432.91C591.28 417.8 585.24 384.56 582.21 370.06C580.35 361.11 571.12 344.8 564.33 333.62C574.92 314.83 585.89 291.85 587.93 280.61C588.24 278.89 588.17 272.15 587.71 263.16C597.81 307.35 587.79 331.06 601.7 356.87C613.39 378.57 599.7 413.88 598.52 438.11Z"/>
		<path id="Path 14" class="shp8" d="M480.95 182.28C495.37 202.79 515.47 243.43 524.48 268.86C526.09 273.4 532.34 273.94 534.67 269.73C555.01 232.96 556.65 197.94 558.89 185.79C558.89 185.79 573.78 192.4 577.46 197.78C585.51 209.58 589.01 274.69 587.93 280.61C584.31 300.55 552.58 357.49 544.73 362.32L547.07 377.71L579.92 459.13C579.92 459.13 561.86 478.22 516.28 483.66C470.7 489.1 424.16 472.18 412.08 464.32C409.6 439.12 413.71 420.99 420.14 405.3C426.09 390.76 441.36 372.83 441.36 372.83L442.69 359.96C429.6 315.27 412.12 266.04 416.3 235.29C422.14 192.4 457.19 185.42 457.19 185.42L480.95 182.28Z"/>
		<path id="Path 15" class="shp2" d="M502.96 491.27L526.78 482.21C526.78 482.21 535.59 497.32 535.59 509.4C535.59 521.49 522.29 515.44 519.27 521.49C516.25 527.53 521.69 542.03 516.25 546.87C510.81 551.7 501.75 551.7 495.7 536.59C489.66 521.49 502.35 513.63 507.79 511.82C513.23 510 502.96 491.27 502.96 491.27Z"/>
		<path id="Path 16" class="shp4" d="M442.69 359.96L441.36 372.83C441.36 372.83 482.84 394.22 547.07 377.71L544.73 362.32C544.73 362.32 504.13 378.47 442.69 359.96Z"/>
		<path id="Path 17" class="shp9" d="M502.53 493.11C503.43 497.34 533.17 493.11 534.44 489.63C535.7 486.14 526.24 438.42 520.48 407.65C514.72 376.89 510.51 378.04 507.79 363.24C505.07 348.43 485.97 267.78 478.41 244.51C470.86 221.25 468.25 191.13 452.65 195.28C415.22 205.25 420.51 246.52 426.55 271.3C432.59 296.07 464.89 363.84 468.21 374.12C471.53 384.39 479.99 431.22 488.15 456.9C496.31 482.59 502.53 493.11 502.53 493.11Z"/>
		<path id="Path 18" fill-rule="evenodd" class="shp1" d="M471.23 834.55C471.23 826.7 461.77 767.07 457.74 736.46C455.05 716.05 455.95 689.55 456.36 666.28L456.36 666.28C455.95 689.55 455.05 716.05 457.74 736.46C461.77 767.07 471.23 826.7 471.23 834.55ZM441.23 372.98C440.12 374.29 432.27 383.74 425.96 394.11C432.27 383.73 440.12 374.29 441.23 372.98ZM441.36 372.83C441.36 372.83 441.31 372.88 441.23 372.98C441.31 372.88 441.36 372.83 441.36 372.83ZM471.23 834.61C471.23 834.6 471.23 834.6 471.23 834.6C471.23 834.6 471.23 834.6 471.23 834.61ZM471.23 834.58C471.23 834.58 471.23 834.58 471.23 834.58C471.23 834.58 471.23 834.58 471.23 834.58ZM412.06 464.14C412.06 464.11 412.05 464.08 412.05 464.04C412.05 464.08 412.06 464.11 412.06 464.14ZM412.04 463.96C412.04 463.89 412.03 463.83 412.03 463.77C412.03 463.83 412.04 463.89 412.04 463.96ZM412.02 463.71C412.02 463.67 412.01 463.63 412.01 463.59C412.01 463.63 412.02 463.67 412.02 463.71ZM412 463.53C412 463.47 411.99 463.41 411.99 463.35C411.99 463.41 412 463.47 412 463.53ZM411.98 463.24C411.97 463.21 411.97 463.19 411.97 463.16C411.97 463.19 411.97 463.21 411.98 463.24ZM411.95 462.97C411.95 462.96 411.95 462.96 411.95 462.95C411.95 462.96 411.95 462.96 411.95 462.97Z"/>
		<path id="Path 19" class="shp10" d="M485.1 865.32L473.06 865.32L473.06 840.46L473.06 837.29C474.52 838.22 476.76 838.88 479.39 839.28C480.74 849.65 482.97 858.52 485.1 865.32Z"/>
		<path id="Path 20" fill-rule="evenodd" class="shp11" d="M479.39 839.28C476.76 838.88 474.52 838.22 473.06 837.29L473.06 837.27C471.93 836.55 471.26 835.67 471.23 834.61C471.23 834.6 471.23 834.6 471.23 834.6C471.23 834.6 471.23 834.59 471.23 834.58C471.23 834.58 471.23 834.58 471.23 834.58C471.23 834.57 471.23 834.56 471.23 834.55C471.23 826.7 461.77 767.07 457.74 736.46C455.05 716.05 455.95 689.55 456.36 666.28L474.71 694.75C471.28 747.61 480.57 776.93 478.41 810.53C477.75 820.93 478.26 830.63 479.39 839.28ZM483.64 566.89C480.84 565.31 478.99 564.58 478.99 564.58L452.1 555.22C452.1 555.22 452.1 555.22 452.1 555.22L432.33 548.34C430.55 543.08 428.79 537.88 427.11 532.79L494.53 532.79C494.79 534.01 495.18 535.27 495.7 536.59C499.56 546.24 504.66 549.73 509.25 549.73C510.98 549.73 512.64 549.23 514.14 548.39L514.14 558.24C501.4 558.24 490.7 561.48 483.64 566.89ZM447.55 517.45L422.22 517.45C416.08 496.5 413.41 476.98 412.24 464.43C417.21 467.61 427.7 472.23 441.43 476.26C442.14 491.08 444.42 504.66 447.55 517.45ZM411.35 450.2C411.35 450.2 411.35 450.2 411.35 450.2C411.35 450.2 411.35 450.2 411.35 450.2Z"/>
		<path id="Path 21" class="shp1" d="M441.43 476.26C427.7 472.23 417.21 467.61 412.24 464.43L412.24 464.42L412.08 464.32C412.07 464.26 412.07 464.2 412.06 464.14C412.06 464.11 412.05 464.08 412.05 464.04C412.05 464.01 412.05 463.99 412.04 463.96C412.04 463.89 412.03 463.83 412.03 463.77C412.02 463.75 412.02 463.73 412.02 463.71C412.02 463.67 412.01 463.63 412.01 463.59C412.01 463.57 412 463.55 412 463.53C412 463.47 411.99 463.41 411.99 463.35C411.98 463.31 411.98 463.28 411.98 463.24C411.97 463.21 411.97 463.19 411.97 463.16C411.96 463.1 411.96 463.03 411.95 462.97C411.95 462.96 411.95 462.96 411.95 462.95C411.56 458.6 411.37 454.47 411.35 450.52C411.35 450.34 411.35 450.23 411.35 450.2C411.35 450.2 411.35 450.2 411.35 450.2L411.36 450.2C411.35 444.85 411.66 439.85 412.23 435.12C420.68 439.29 428.66 443.33 434.83 446.68C437.32 448.03 439.65 449.18 441.84 450.15C441.63 452.77 441.47 455.46 441.36 458.22C441.11 464.45 441.15 470.45 441.43 476.26ZM450.05 408.82L425.96 394.11C432.76 382.93 441.36 372.83 441.36 372.83C441.36 372.83 449.33 376.94 463.69 380.17C459.98 385.75 454.61 395.24 450.05 408.82ZM543.5 644.86C544.3 631.62 545.81 618.55 548.59 606.13C548.59 606.13 545.59 621.11 543.5 644.86ZM607.75 557.58C607.73 557.58 607.72 557.58 607.71 557.58C606.34 549.05 604.8 540.57 603.24 532.79L603.69 532.79C604.58 536.25 605.96 543.3 607.75 557.58Z"/>
		<path id="Path 22" class="shp11" d="M539.9 832.43L536.17 790.17L551.73 814.33C548.64 822.86 544.71 829.3 539.9 832.43ZM559.12 726.72C553.75 712.82 548.14 698.31 542.66 684.14C542.61 671.19 542.71 657.94 543.5 644.86C545.59 621.11 548.59 606.13 548.59 606.13L517.86 544.54C519.13 541.5 518.84 537.1 518.55 532.79L603.24 532.79C604.8 540.57 606.34 549.05 607.71 557.58C604.26 557.12 598.89 555.67 593.08 555.67C580.19 555.67 565.15 562.79 564.32 603.57C563.47 645.09 544.85 654.24 556.32 708.2C557.52 713.85 558.46 720.1 559.12 726.72Z"/>
		<path id="Path 23" fill-rule="evenodd" class="shp1" d="M480.95 182.28C480.95 182.28 480.95 182.28 480.95 182.28L480.95 182.28C486.33 181.06 492.23 179.31 496.42 176.96C492.23 179.31 486.33 181.06 480.95 182.28ZM496.63 176.84C496.61 176.86 496.59 176.87 496.57 176.88C496.59 176.87 496.61 176.85 496.63 176.84ZM496.96 176.65C496.94 176.66 496.93 176.67 496.91 176.68C496.93 176.67 496.94 176.66 496.96 176.65ZM500.88 173.33C500.89 173.33 500.89 173.33 500.89 173.32C500.89 173.33 500.89 173.33 500.88 173.33ZM500.89 173.32C500.9 173.31 500.91 173.3 500.92 173.28C500.91 173.3 500.9 173.31 500.89 173.32ZM500.93 173.27C503.35 170.07 504.6 165.34 505.23 160.82C505.23 160.82 505.24 160.82 505.24 160.82C504.61 165.33 503.35 170.07 500.93 173.27ZM462.84 132.52C466.81 131.05 468.63 131.15 469.29 128.79C468.63 131.15 466.81 131.05 462.84 132.52ZM451.23 91.21C451.53 89.09 453.43 88.62 455.66 88.62C455.66 88.62 455.67 88.62 455.67 88.62C455.67 88.62 455.67 88.62 455.67 88.62C453.43 88.62 451.53 89.09 451.23 91.21ZM455.67 88.62C455.67 88.62 455.67 88.62 455.67 88.62C456.53 88.62 457.44 88.69 458.32 88.76C457.44 88.69 456.53 88.62 455.67 88.62ZM457.29 75.71C457.29 75.4 457.32 75.1 457.4 74.81C458.46 70.7 465.56 73.1 468.31 69.98C465.56 73.1 458.46 70.7 457.4 74.81C457.32 75.1 457.29 75.4 457.29 75.71ZM456.98 52.55C457.14 53.3 457.5 53.97 458.08 54.49C457.5 53.97 457.14 53.3 456.98 52.55ZM462.75 44.56C459.13 44.56 456.25 49.28 456.98 52.55C456.25 49.28 459.12 44.56 462.75 44.56ZM482.03 35.53C483.99 33.87 486.86 30.39 487.16 25.86C486.86 30.39 483.99 33.87 482.03 35.53ZM496.96 20.43C500.88 20.43 500.27 17.38 502.92 14.35C500.27 17.38 500.88 20.43 496.96 20.43ZM478.08 15.13C477.53 10.4 481.58 7.08 485.28 7.07C481.58 7.09 477.53 10.4 478.08 15.13ZM535.9 11.08C536.5 11 537.09 10.91 537.66 10.83C537.09 10.91 536.5 11 535.9 11.08ZM519.92 5.13C521.08 6.52 522.28 7.95 523.61 9.05C522.28 7.95 521.08 6.52 519.92 5.13ZM513.41 0.09C512.35 0.09 511.22 0.6 509.98 1.84C511.22 0.59 512.35 0.08 513.41 0.08C515.75 0.08 517.76 2.54 519.92 5.13C517.76 2.55 515.75 0.09 513.41 0.09ZM496.42 176.96C496.45 176.95 496.47 176.93 496.49 176.92C496.47 176.93 496.45 176.95 496.42 176.96ZM496.49 176.92C496.51 176.91 496.54 176.9 496.56 176.88C496.54 176.9 496.51 176.91 496.49 176.92ZM496.64 176.84C496.65 176.83 496.67 176.82 496.69 176.81C496.67 176.82 496.65 176.83 496.64 176.84ZM496.71 176.8C496.73 176.79 496.74 176.78 496.76 176.77C496.74 176.78 496.73 176.79 496.71 176.8ZM496.78 176.76C496.79 176.75 496.81 176.74 496.83 176.73C496.81 176.74 496.79 176.75 496.78 176.76ZM496.84 176.72C496.86 176.71 496.88 176.7 496.89 176.69C496.88 176.7 496.86 176.71 496.84 176.72ZM496.98 176.64C497 176.63 497.01 176.62 497.03 176.61C497.01 176.62 497 176.63 496.98 176.64ZM497.05 176.59C497.06 176.59 497.08 176.58 497.09 176.57C497.08 176.58 497.06 176.59 497.05 176.59ZM497.12 176.55C497.13 176.54 497.14 176.54 497.15 176.53C497.14 176.54 497.13 176.54 497.12 176.55ZM497.19 176.51C497.2 176.5 497.21 176.5 497.22 176.49C497.21 176.5 497.2 176.5 497.19 176.51ZM497.25 176.47C497.26 176.46 497.27 176.46 497.29 176.45C497.27 176.46 497.26 176.46 497.25 176.47ZM497.32 176.43C497.33 176.42 497.34 176.42 497.35 176.41C497.34 176.42 497.33 176.42 497.32 176.43ZM497.38 176.39C497.39 176.38 497.4 176.37 497.41 176.37C497.4 176.38 497.39 176.38 497.38 176.39ZM497.45 176.35C497.46 176.34 497.47 176.34 497.48 176.33C497.47 176.34 497.46 176.34 497.45 176.35ZM497.51 176.31C497.52 176.3 497.53 176.29 497.54 176.29C497.53 176.29 497.52 176.3 497.51 176.31ZM497.58 176.26C497.59 176.26 497.6 176.25 497.6 176.25C497.6 176.25 497.59 176.26 497.58 176.26ZM497.64 176.22C497.65 176.22 497.66 176.21 497.67 176.21C497.66 176.21 497.65 176.22 497.64 176.22ZM497.71 176.18C497.71 176.18 497.72 176.17 497.73 176.17C497.72 176.17 497.71 176.18 497.71 176.18ZM497.77 176.14C497.78 176.13 497.79 176.13 497.79 176.13C497.79 176.13 497.78 176.13 497.77 176.14ZM497.84 176.1C497.84 176.09 497.85 176.09 497.85 176.09C497.85 176.09 497.84 176.09 497.84 176.1ZM497.9 176.05C497.9 176.05 497.91 176.05 497.91 176.04C497.91 176.05 497.9 176.05 497.9 176.05ZM497.96 176.01C497.96 176.01 497.97 176.01 497.97 176C497.97 176.01 497.96 176.01 497.96 176.01ZM498.02 175.97C498.03 175.97 498.03 175.96 498.04 175.96C498.03 175.96 498.03 175.97 498.02 175.97ZM498.09 175.93C498.09 175.92 498.09 175.92 498.1 175.92C498.09 175.92 498.09 175.92 498.09 175.93ZM498.15 175.88C498.15 175.88 498.15 175.88 498.16 175.88C498.15 175.88 498.15 175.88 498.15 175.88ZM498.21 175.84C498.21 175.84 498.21 175.84 498.22 175.84C498.21 175.84 498.21 175.84 498.21 175.84ZM498.27 175.8C498.27 175.8 498.27 175.8 498.27 175.79C498.27 175.79 498.27 175.8 498.27 175.8ZM498.33 175.76C498.33 175.75 498.33 175.75 498.34 175.75C498.33 175.75 498.33 175.75 498.33 175.76ZM498.39 175.71C498.39 175.71 498.39 175.71 498.39 175.71C498.39 175.71 498.39 175.71 498.39 175.71ZM498.45 175.67C498.45 175.67 498.45 175.67 498.45 175.67C498.45 175.67 498.45 175.67 498.45 175.67ZM498.5 175.63C498.51 175.63 498.51 175.63 498.51 175.62C498.51 175.63 498.51 175.63 498.5 175.63ZM498.56 175.58C498.56 175.58 498.56 175.58 498.57 175.58C498.56 175.58 498.56 175.58 498.56 175.58ZM498.62 175.54C498.62 175.54 498.62 175.54 498.62 175.54C498.62 175.54 498.62 175.54 498.62 175.54ZM498.68 175.5C498.68 175.5 498.68 175.5 498.68 175.5C498.68 175.5 498.68 175.5 498.68 175.5ZM498.74 175.45C498.74 175.45 498.74 175.45 498.74 175.45C498.74 175.45 498.74 175.45 498.74 175.45ZM498.79 175.41L498.79 175.41L498.79 175.41ZM499.58 174.75C499.59 174.75 499.59 174.75 499.59 174.75C499.59 174.75 499.59 174.75 499.58 174.75ZM499.63 174.7L499.64 174.7L499.63 174.7ZM499.73 174.61C499.73 174.61 499.73 174.61 499.73 174.61C499.73 174.61 499.73 174.61 499.73 174.61ZM499.92 174.43L499.92 174.43C499.92 174.43 499.92 174.43 499.92 174.43ZM499.97 174.39C499.97 174.38 499.97 174.38 499.97 174.38C499.97 174.38 499.97 174.38 499.97 174.39ZM500.1 174.25C500.1 174.25 500.1 174.25 500.1 174.24C500.1 174.25 500.1 174.25 500.1 174.25ZM500.14 174.2C500.15 174.2 500.15 174.2 500.15 174.2C500.15 174.2 500.15 174.2 500.14 174.2ZM500.19 174.15C500.19 174.15 500.19 174.15 500.19 174.15L500.19 174.15ZM500.28 174.06L500.28 174.06ZM500.36 173.97C500.36 173.97 500.36 173.96 500.36 173.96C500.36 173.96 500.36 173.97 500.36 173.97ZM500.41 173.92C500.41 173.92 500.41 173.92 500.41 173.92C500.41 173.92 500.41 173.92 500.41 173.92ZM500.44 173.88C500.44 173.88 500.45 173.87 500.45 173.87C500.45 173.87 500.44 173.88 500.44 173.88ZM500.48 173.83C500.49 173.82 500.49 173.82 500.49 173.82C500.49 173.82 500.49 173.82 500.48 173.83ZM500.58 173.71C500.58 173.71 500.58 173.71 500.59 173.71C500.58 173.71 500.58 173.71 500.58 173.71ZM500.63 173.65C500.64 173.65 500.64 173.64 500.64 173.64C500.64 173.64 500.64 173.65 500.63 173.65ZM500.69 173.58C500.69 173.58 500.69 173.58 500.7 173.57C500.69 173.58 500.69 173.58 500.69 173.58ZM500.74 173.52C500.74 173.52 500.74 173.51 500.75 173.51C500.74 173.51 500.74 173.52 500.74 173.52ZM500.79 173.45C500.79 173.45 500.8 173.44 500.8 173.44C500.8 173.44 500.79 173.45 500.79 173.45ZM500.84 173.39C500.85 173.38 500.85 173.37 500.86 173.36C500.85 173.37 500.85 173.38 500.84 173.39ZM501.6 157.68C501.6 157.31 501.65 156.9 501.75 156.45C501.65 156.9 501.6 157.31 501.6 157.68ZM492.49 150.96C492.6 150.96 492.72 150.96 492.85 150.95C492.72 150.96 492.6 150.96 492.49 150.96ZM496.8 149.44C498.13 148.47 499.1 147.4 500.48 147.39C499.1 147.4 498.13 148.47 496.8 149.44ZM500.5 147.39C500.5 147.39 500.5 147.39 500.5 147.39C500.5 147.39 500.5 147.39 500.5 147.39ZM492.95 144.81C492.95 144.8 492.94 144.8 492.94 144.79C492.94 144.8 492.95 144.8 492.95 144.81ZM491.97 144.21C491.92 144.21 491.88 144.2 491.83 144.2C491.88 144.2 491.92 144.21 491.97 144.21ZM465.72 138.72C465.68 138.72 465.63 138.71 465.58 138.71C465.63 138.71 465.68 138.72 465.72 138.72ZM465.73 138.72C465.77 138.72 465.82 138.71 465.86 138.71C465.87 138.71 465.88 138.71 465.89 138.71C465.88 138.71 465.87 138.71 465.86 138.71C465.82 138.71 465.77 138.72 465.73 138.72ZM466.41 138.67C466.44 138.66 466.48 138.66 466.51 138.66C466.48 138.66 466.44 138.66 466.41 138.67ZM485.14 136.84C485.13 136.84 485.13 136.84 485.13 136.84C485.13 136.84 485.13 136.84 485.14 136.84ZM462.57 132.63C462.59 132.62 462.6 132.62 462.61 132.61C462.6 132.62 462.59 132.62 462.57 132.63ZM462.64 132.6C462.67 132.59 462.71 132.57 462.75 132.56C462.71 132.57 462.67 132.59 462.64 132.6ZM462.76 132.55C462.78 132.54 462.8 132.54 462.82 132.53C462.8 132.54 462.78 132.54 462.76 132.55ZM469.35 128.55C469.35 128.55 469.35 128.55 469.35 128.55C469.35 128.55 469.35 128.55 469.35 128.55ZM469.35 128.55C469.35 128.53 469.35 128.52 469.36 128.5C469.35 128.52 469.35 128.53 469.35 128.55ZM466.76 118.41C466.75 118.38 466.75 118.35 466.74 118.32C466.75 118.35 466.75 118.38 466.76 118.41ZM459.8 116C460.67 115.94 461.52 115.88 462.33 115.87C461.52 115.88 460.67 115.94 459.8 116ZM462.35 115.87C462.35 115.87 462.34 115.87 462.34 115.87C462.34 115.87 462.35 115.87 462.35 115.87ZM460.83 88.9C460.82 88.9 460.8 88.9 460.79 88.9C460.8 88.9 460.82 88.9 460.83 88.9ZM460.84 88.9C461.92 88.9 462.8 88.76 463.27 88.28C462.8 88.76 461.92 88.9 460.84 88.9ZM458.11 54.53C458.11 54.52 458.1 54.51 458.09 54.5C458.1 54.51 458.11 54.52 458.11 54.53ZM472.5 49.33C472.44 49.33 472.38 49.33 472.32 49.32C472.38 49.33 472.44 49.33 472.5 49.33ZM472.5 49.33C473.28 49.33 473.85 48.98 474.4 48.44C473.85 48.98 473.28 49.33 472.5 49.33ZM474.42 48.42C474.42 48.42 474.42 48.42 474.42 48.42C474.42 48.42 474.42 48.42 474.42 48.42ZM474.47 48.37C474.82 48.02 474.95 47.38 474.94 46.56C474.95 47.38 474.82 48.02 474.47 48.37ZM466.93 46.56C466.92 46.55 466.91 46.55 466.9 46.54C466.91 46.55 466.92 46.55 466.93 46.56ZM466.59 46.31C466.59 46.31 466.59 46.31 466.59 46.31C466.59 46.31 466.59 46.31 466.59 46.31ZM466.39 46.16C466.39 46.16 466.39 46.16 466.39 46.16C466.39 46.16 466.39 46.16 466.39 46.16ZM466.14 45.98C466.08 45.93 466.03 45.89 465.97 45.85C466.03 45.89 466.08 45.93 466.14 45.98ZM465.85 45.76C465.8 45.72 465.76 45.69 465.71 45.65C465.76 45.69 465.8 45.72 465.85 45.76ZM465.71 45.65C465.46 45.46 465.21 45.29 464.96 45.15C465.21 45.29 465.46 45.46 465.71 45.65ZM474.15 39.33C474.15 38.68 474.23 38.12 474.43 37.72C474.23 38.12 474.15 38.68 474.15 39.33ZM496.96 20.43L496.95 20.43L496.96 20.43ZM496.56 20.42C496.55 20.42 496.54 20.42 496.53 20.42C496.54 20.42 496.55 20.42 496.56 20.42ZM502.97 14.29C502.99 14.27 503.01 14.25 503.03 14.23C503.01 14.25 502.99 14.27 502.97 14.29ZM508.04 14.21C508.03 14.21 508.03 14.21 508.02 14.21C508.03 14.21 508.03 14.21 508.04 14.21ZM508.06 14.21C508.25 14.2 508.43 14.12 508.61 13.94C508.43 14.12 508.25 14.2 508.06 14.21ZM503.05 14.2C503.06 14.19 503.08 14.17 503.1 14.15C503.08 14.17 503.06 14.19 503.05 14.2ZM503.18 14.06C503.19 14.05 503.2 14.04 503.21 14.03C503.2 14.04 503.19 14.05 503.18 14.06ZM503.23 14.01C503.94 13.3 504.57 13.05 505.13 13.04C504.57 13.05 503.94 13.3 503.23 14.01ZM508.62 13.92C508.63 13.91 508.64 13.91 508.65 13.9C508.64 13.91 508.63 13.91 508.62 13.92ZM508.66 13.88C508.67 13.87 508.67 13.87 508.68 13.86C508.67 13.87 508.67 13.87 508.66 13.88ZM508.71 13.83C508.84 13.66 508.89 13.45 508.89 13.21C508.89 13.45 508.84 13.66 508.71 13.83ZM506.76 13.62C506.74 13.61 506.72 13.6 506.7 13.59C506.72 13.6 506.74 13.61 506.76 13.62ZM506.65 13.56L506.65 13.56ZM506.62 13.54C506.61 13.54 506.6 13.53 506.59 13.52C506.6 13.53 506.61 13.54 506.62 13.54ZM506.54 13.49C506.54 13.49 506.54 13.49 506.54 13.49C506.54 13.49 506.54 13.49 506.54 13.49ZM505.16 13.04C505.15 13.04 505.15 13.04 505.15 13.04C505.15 13.04 505.15 13.04 505.16 13.04ZM531.21 11.46C531.24 11.46 531.26 11.46 531.29 11.46C531.26 11.46 531.24 11.46 531.21 11.46ZM531.07 11.46C530.4 11.46 529.72 11.42 529.06 11.34C529.72 11.42 530.4 11.46 531.07 11.46ZM531.33 11.46C531.35 11.46 531.36 11.46 531.38 11.46C531.37 11.46 531.35 11.46 531.33 11.46ZM531.43 11.46C531.45 11.46 531.46 11.46 531.48 11.46C531.46 11.46 531.45 11.46 531.43 11.46ZM531.53 11.46C531.54 11.46 531.56 11.46 531.57 11.46C531.56 11.46 531.54 11.46 531.53 11.46ZM531.62 11.46C531.64 11.46 531.65 11.46 531.67 11.46C531.65 11.46 531.64 11.46 531.62 11.46ZM531.72 11.45C531.73 11.45 531.74 11.45 531.76 11.45C531.74 11.45 531.73 11.45 531.72 11.45ZM531.87 11.45C531.88 11.45 531.89 11.45 531.9 11.45C531.89 11.45 531.88 11.45 531.87 11.45ZM531.96 11.45C531.98 11.45 531.99 11.45 532 11.45C531.99 11.45 531.98 11.45 531.96 11.45ZM532.06 11.44C532.07 11.44 532.08 11.44 532.09 11.44C532.08 11.44 532.07 11.44 532.06 11.44ZM532.15 11.44C532.16 11.44 532.17 11.44 532.18 11.44C532.17 11.44 532.16 11.44 532.15 11.44ZM532.25 11.44C532.25 11.44 532.26 11.44 532.27 11.44C532.26 11.44 532.25 11.44 532.25 11.44ZM532.34 11.43C532.34 11.43 532.35 11.43 532.35 11.43C532.35 11.43 532.34 11.43 532.34 11.43ZM532.59 11.42C532.6 11.42 532.6 11.42 532.61 11.42C532.6 11.42 532.6 11.42 532.59 11.42ZM532.68 11.41C532.69 11.41 532.7 11.41 532.7 11.41C532.7 11.41 532.69 11.41 532.68 11.41ZM532.77 11.41C532.78 11.41 532.79 11.41 532.79 11.41C532.79 11.41 532.78 11.41 532.77 11.41ZM532.87 11.4C532.87 11.4 532.88 11.4 532.88 11.4C532.88 11.4 532.87 11.4 532.87 11.4ZM533.22 11.37L533.22 11.37L533.22 11.37ZM533.3 11.37C533.31 11.37 533.31 11.37 533.32 11.37C533.31 11.37 533.31 11.37 533.3 11.37ZM533.4 11.36C533.4 11.36 533.4 11.36 533.41 11.36C533.4 11.36 533.4 11.36 533.4 11.36ZM533.49 11.35C533.49 11.35 533.49 11.35 533.49 11.35C533.49 11.35 533.49 11.35 533.49 11.35ZM529.05 11.34C529.04 11.33 529.04 11.33 529.03 11.33C529.04 11.33 529.04 11.33 529.05 11.34ZM533.84 11.32L533.84 11.32L533.84 11.32ZM533.92 11.31C533.92 11.31 533.93 11.31 533.94 11.31C533.93 11.31 533.92 11.31 533.92 11.31ZM534.01 11.3C534.01 11.3 534.02 11.3 534.03 11.3C534.02 11.3 534.01 11.3 534.01 11.3ZM534.1 11.29L534.11 11.29L534.1 11.29ZM534.63 11.24L534.63 11.24L534.63 11.24ZM534.72 11.23L534.72 11.23L534.72 11.23ZM535.06 11.19C535.06 11.19 535.06 11.19 535.07 11.19C535.06 11.19 535.06 11.19 535.06 11.19ZM535.14 11.18C535.15 11.18 535.15 11.18 535.16 11.17C535.15 11.18 535.15 11.18 535.14 11.18ZM535.23 11.16C535.24 11.16 535.24 11.16 535.25 11.16C535.24 11.16 535.24 11.16 535.23 11.16ZM535.32 11.15C535.33 11.15 535.34 11.15 535.35 11.15C535.34 11.15 535.33 11.15 535.32 11.15ZM535.41 11.14C535.42 11.14 535.44 11.14 535.45 11.14C535.44 11.14 535.42 11.14 535.41 11.14ZM535.54 11.13C535.55 11.12 535.57 11.12 535.59 11.12C535.57 11.12 535.55 11.12 535.54 11.13ZM535.63 11.11C535.65 11.11 535.66 11.11 535.69 11.11C535.66 11.11 535.65 11.11 535.63 11.11ZM535.72 11.1C535.74 11.1 535.76 11.1 535.79 11.09C535.76 11.1 535.74 11.1 535.72 11.1ZM535.81 11.09C535.84 11.09 535.86 11.08 535.89 11.08C535.86 11.08 535.84 11.09 535.81 11.09ZM526.59 10.77C526.59 10.77 526.58 10.76 526.58 10.76C526.58 10.76 526.59 10.77 526.59 10.77ZM526.53 10.75C525.65 10.43 524.81 9.99 524.03 9.39C524.81 9.99 525.65 10.43 526.53 10.75ZM523.94 9.32C523.94 9.32 523.93 9.32 523.93 9.32C523.93 9.32 523.94 9.32 523.94 9.32ZM523.75 9.17C523.75 9.17 523.75 9.17 523.75 9.17C523.75 9.17 523.75 9.17 523.75 9.17ZM523.67 9.11C523.65 9.09 523.63 9.07 523.61 9.06C523.63 9.07 523.65 9.09 523.67 9.11ZM485.31 7.07C485.31 7.07 485.31 7.07 485.3 7.07C485.31 7.07 485.31 7.07 485.31 7.07Z"/>
		<path id="Path 24" class="shp3" d="M485.72 189.47C485.72 189.47 485.72 189.47 485.72 189.47C485.79 189.44 485.86 189.41 485.93 189.38C485.86 189.41 485.79 189.44 485.72 189.47Z"/>
		<path id="Path 25" class="shp10" d="M480.95 182.28C486.33 181.06 492.23 179.31 496.42 176.96C496.42 176.96 496.42 176.96 496.42 176.96C496.45 176.95 496.47 176.93 496.49 176.92C496.49 176.92 496.49 176.92 496.49 176.92C496.51 176.91 496.54 176.9 496.56 176.88C496.56 176.88 496.56 176.88 496.57 176.88C496.59 176.87 496.61 176.85 496.63 176.84C496.63 176.84 496.63 176.84 496.64 176.84C496.65 176.83 496.67 176.82 496.69 176.81C496.7 176.8 496.7 176.8 496.71 176.8C496.73 176.79 496.74 176.78 496.76 176.77C496.76 176.76 496.77 176.76 496.78 176.76C496.79 176.75 496.81 176.74 496.83 176.73C496.83 176.72 496.84 176.72 496.84 176.72C496.86 176.71 496.88 176.7 496.89 176.69C496.9 176.68 496.91 176.68 496.91 176.68C496.93 176.67 496.94 176.66 496.96 176.65C496.97 176.64 496.97 176.64 496.98 176.64C497 176.63 497.01 176.62 497.03 176.61C497.03 176.6 497.04 176.6 497.05 176.59C497.06 176.59 497.08 176.58 497.09 176.57C497.1 176.56 497.11 176.56 497.12 176.55C497.13 176.54 497.14 176.54 497.15 176.53C497.16 176.52 497.18 176.52 497.19 176.51C497.2 176.5 497.21 176.5 497.22 176.49C497.23 176.48 497.24 176.48 497.25 176.47C497.26 176.46 497.27 176.46 497.29 176.45C497.3 176.44 497.31 176.44 497.32 176.43C497.33 176.42 497.34 176.42 497.35 176.41C497.36 176.4 497.37 176.4 497.38 176.39C497.39 176.38 497.4 176.38 497.41 176.37C497.43 176.36 497.44 176.36 497.45 176.35C497.46 176.34 497.47 176.34 497.48 176.33C497.49 176.32 497.5 176.31 497.51 176.31C497.52 176.3 497.53 176.29 497.54 176.29C497.55 176.28 497.57 176.27 497.58 176.26C497.59 176.26 497.6 176.25 497.6 176.25C497.62 176.24 497.63 176.23 497.64 176.22C497.65 176.22 497.66 176.21 497.67 176.21C497.68 176.2 497.69 176.19 497.71 176.18C497.71 176.18 497.72 176.17 497.73 176.17C497.74 176.16 497.76 176.15 497.77 176.14C497.78 176.13 497.79 176.13 497.79 176.13C497.81 176.12 497.82 176.11 497.84 176.1C497.84 176.09 497.85 176.09 497.85 176.09C497.87 176.08 497.88 176.06 497.9 176.05C497.9 176.05 497.91 176.05 497.91 176.04C497.93 176.03 497.95 176.02 497.96 176.01C497.96 176.01 497.97 176.01 497.97 176C497.99 175.99 498.01 175.98 498.02 175.97C498.03 175.97 498.03 175.96 498.04 175.96C498.05 175.95 498.07 175.94 498.09 175.93C498.09 175.92 498.09 175.92 498.1 175.92C498.11 175.91 498.13 175.9 498.15 175.88C498.15 175.88 498.15 175.88 498.16 175.88C498.17 175.86 498.19 175.85 498.21 175.84C498.21 175.84 498.21 175.84 498.22 175.84C498.23 175.82 498.25 175.81 498.27 175.8C498.27 175.8 498.27 175.79 498.27 175.79C498.29 175.78 498.31 175.77 498.33 175.76C498.33 175.75 498.33 175.75 498.34 175.75C498.35 175.74 498.37 175.73 498.39 175.71C498.39 175.71 498.39 175.71 498.39 175.71C498.41 175.7 498.43 175.68 498.45 175.67C498.45 175.67 498.45 175.67 498.45 175.67C498.47 175.65 498.49 175.64 498.5 175.63C498.51 175.63 498.51 175.63 498.51 175.62C498.53 175.61 498.54 175.6 498.56 175.58C498.56 175.58 498.56 175.58 498.57 175.58C498.59 175.57 498.6 175.55 498.62 175.54C498.62 175.54 498.62 175.54 498.62 175.54C498.64 175.53 498.66 175.51 498.68 175.5C498.68 175.5 498.68 175.5 498.68 175.5C498.7 175.48 498.72 175.47 498.74 175.45C498.74 175.45 498.74 175.45 498.74 175.45C498.76 175.44 498.77 175.43 498.79 175.41L498.79 175.41C498.81 175.39 498.83 175.38 498.85 175.37C499.11 175.16 499.35 174.96 499.58 174.75C499.59 174.75 499.59 174.75 499.59 174.75C499.6 174.73 499.62 174.72 499.63 174.7L499.64 174.7C499.67 174.67 499.7 174.64 499.73 174.61C499.73 174.61 499.73 174.61 499.73 174.61C499.8 174.55 499.86 174.49 499.92 174.43C499.92 174.43 499.92 174.43 499.92 174.43C499.94 174.41 499.95 174.4 499.97 174.39C499.97 174.38 499.97 174.38 499.97 174.38C499.98 174.37 500 174.35 500.01 174.34C500.04 174.31 500.07 174.28 500.1 174.25C500.1 174.25 500.1 174.25 500.1 174.24C500.12 174.23 500.13 174.22 500.14 174.2C500.15 174.2 500.15 174.2 500.15 174.2C500.16 174.18 500.18 174.17 500.19 174.15L500.19 174.15C500.22 174.12 500.25 174.09 500.28 174.06L500.28 174.06C500.31 174.03 500.33 174 500.36 173.97C500.36 173.97 500.36 173.96 500.36 173.96C500.38 173.95 500.39 173.93 500.41 173.92C500.41 173.92 500.41 173.92 500.41 173.92C500.42 173.9 500.43 173.89 500.44 173.88C500.44 173.88 500.45 173.87 500.45 173.87C500.46 173.86 500.47 173.84 500.48 173.83C500.49 173.82 500.49 173.82 500.49 173.82C500.5 173.81 500.51 173.79 500.53 173.78C497.13 177.81 488.51 180.56 480.95 182.28Z"/>
		<path id="Path 26" class="shp12" d="M485.72 189.47C484.08 186.87 482.48 184.46 480.95 182.28C488.51 180.56 497.13 177.81 500.53 173.78C500.55 173.75 500.56 173.74 500.58 173.71C500.58 173.71 500.58 173.71 500.59 173.71C500.6 173.69 500.62 173.67 500.63 173.65C500.64 173.65 500.64 173.64 500.64 173.64C500.66 173.62 500.67 173.6 500.69 173.58C500.69 173.58 500.69 173.58 500.7 173.57C500.71 173.55 500.72 173.54 500.74 173.52C500.74 173.52 500.74 173.51 500.75 173.51C500.76 173.49 500.77 173.47 500.79 173.45C500.79 173.45 500.8 173.44 500.8 173.44C500.81 173.42 500.83 173.4 500.84 173.39C500.85 173.38 500.85 173.37 500.86 173.36C500.87 173.35 500.88 173.34 500.88 173.33C500.9 173.31 500.91 173.3 500.92 173.28C500.93 173.28 500.93 173.27 500.93 173.27C503.35 170.07 504.61 165.33 505.24 160.82C506.94 160.77 508.84 159.91 509.98 158.35C510.96 157 511.91 153.39 512.71 149.36C513.5 162.97 510.9 178.13 485.93 189.38C485.86 189.41 485.79 189.44 485.72 189.47Z"/>
		<path id="Path 27" class="shp13" d="M505.23 160.82C505.23 160.82 505.23 160.82 505.23 160.82C505.17 160.82 505.12 160.82 505.06 160.82C503.19 160.82 501.59 159.82 501.6 157.68C501.6 157.31 501.65 156.9 501.75 156.45C502.5 153.34 503.42 151.25 503.43 149.82C503.43 148.79 502.96 148.1 501.6 147.6C501.2 147.46 500.84 147.4 500.5 147.39C500.5 147.39 500.5 147.39 500.5 147.39C500.49 147.39 500.49 147.39 500.48 147.39C499.1 147.4 498.13 148.47 496.8 149.44C495.8 150.16 494.61 150.84 492.91 150.95C492.89 150.95 492.87 150.95 492.85 150.95C492.72 150.96 492.6 150.96 492.49 150.96C488.82 150.96 494.71 146.87 492.95 144.81C492.95 144.8 492.94 144.8 492.94 144.79C492.93 144.78 492.92 144.77 492.92 144.77C492.91 144.76 492.91 144.76 492.91 144.76C492.58 144.41 492.27 144.25 491.97 144.21C491.92 144.21 491.88 144.2 491.83 144.2C491.27 144.2 490.72 144.59 490.12 144.98C489.52 145.36 488.87 145.75 488.13 145.75C487.61 145.75 487.04 145.56 486.41 145.06C485.92 144.67 485.71 144.32 485.71 144C485.71 142.42 490.82 141.51 490.81 138.7C490.81 138.61 490.8 138.51 490.79 138.41C490.64 137.24 488.32 136.84 485.14 136.84C485.13 136.84 485.13 136.84 485.13 136.84C478.96 136.84 469.57 138.34 466.51 138.66C466.48 138.66 466.44 138.66 466.41 138.67C466.2 138.69 466.03 138.7 465.89 138.71C465.88 138.71 465.87 138.71 465.86 138.71C465.82 138.71 465.77 138.72 465.73 138.72C465.73 138.72 465.73 138.72 465.72 138.72C465.68 138.72 465.63 138.71 465.58 138.71C462.67 138.57 459.06 134.2 462.57 132.63C462.59 132.62 462.6 132.62 462.61 132.61C462.62 132.61 462.63 132.6 462.64 132.6C462.67 132.59 462.71 132.57 462.75 132.56C462.75 132.55 462.75 132.55 462.76 132.55C462.78 132.54 462.8 132.54 462.82 132.53C462.83 132.52 462.83 132.52 462.84 132.52C466.81 131.05 468.63 131.15 469.29 128.79C469.3 128.73 469.32 128.66 469.34 128.59C469.34 128.58 469.34 128.56 469.35 128.55C469.35 128.55 469.35 128.55 469.35 128.55L469.35 128.55C469.35 128.53 469.35 128.52 469.36 128.5C469.44 127.99 469.11 127.81 468.53 127.81C467.93 127.81 467.06 128 466.1 128.19C465.14 128.37 464.08 128.56 463.11 128.56C461.7 128.56 460.46 128.16 459.97 126.78C459.86 126.46 459.8 126.17 459.8 125.91C459.8 122.9 466.84 123.55 466.83 119.21C466.83 118.98 466.81 118.73 466.77 118.47C466.77 118.46 466.76 118.45 466.76 118.44C466.76 118.43 466.76 118.42 466.76 118.41C466.75 118.38 466.75 118.35 466.74 118.32C466.34 116.32 464.54 115.88 462.35 115.87C462.35 115.87 462.34 115.87 462.34 115.87C462.34 115.87 462.33 115.87 462.33 115.87C461.52 115.88 460.67 115.94 459.8 116C459.74 116 459.68 116.01 459.61 116.01C458.69 116.08 457.76 116.15 456.89 116.15C454.99 116.15 453.38 115.82 452.73 114.42C452.73 114.41 452.72 114.4 452.72 114.39C452.51 113.93 452.42 113.51 452.42 113.13C452.42 109.92 459.16 109.33 459.97 104.87C460.01 104.66 460.03 104.45 460.03 104.24C460.03 99.71 451.19 96.63 451.19 91.76C451.19 91.65 451.2 91.54 451.21 91.43C451.21 91.35 451.22 91.28 451.23 91.21C451.53 89.09 453.43 88.62 455.67 88.62C456.53 88.62 457.44 88.69 458.32 88.76C459.19 88.83 460.04 88.9 460.79 88.9C460.8 88.9 460.82 88.9 460.83 88.9C460.83 88.9 460.84 88.9 460.84 88.9C461.92 88.9 462.8 88.76 463.27 88.28C463.28 88.27 463.29 88.26 463.29 88.25C463.49 88.05 463.57 87.8 463.57 87.51C463.57 87.49 463.57 87.46 463.57 87.44C463.47 84.95 457.29 79.79 457.29 75.71C457.29 75.4 457.32 75.1 457.4 74.81C458.46 70.7 465.56 73.1 468.31 69.98C468.7 69.54 469 69 469.19 68.31C469.31 67.86 469.36 67.42 469.36 66.98C469.35 61.96 461.77 57.62 458.16 54.56C458.14 54.55 458.13 54.54 458.11 54.53C458.11 54.52 458.1 54.51 458.09 54.5C458.09 54.5 458.08 54.5 458.08 54.49C454.97 51.7 458.3 44.56 462.75 44.56C463.28 44.56 463.84 44.66 464.39 44.89C464.58 44.96 464.77 45.05 464.96 45.15C465.21 45.29 465.46 45.46 465.71 45.65C465.76 45.69 465.8 45.72 465.85 45.76C465.89 45.79 465.93 45.82 465.97 45.85C466.03 45.89 466.08 45.93 466.14 45.98C466.23 46.04 466.31 46.1 466.39 46.16C466.39 46.16 466.39 46.16 466.39 46.16C466.46 46.21 466.52 46.26 466.59 46.31C466.59 46.31 466.59 46.31 466.59 46.31C466.69 46.39 466.8 46.46 466.9 46.54C466.91 46.55 466.92 46.55 466.93 46.56C469.57 48.47 471.18 49.25 472.32 49.32C472.38 49.33 472.44 49.33 472.5 49.33C472.5 49.33 472.5 49.33 472.5 49.33C473.28 49.33 473.85 48.98 474.4 48.44C474.41 48.44 474.41 48.43 474.42 48.42C474.42 48.42 474.42 48.42 474.42 48.42C474.44 48.4 474.46 48.39 474.47 48.37C474.82 48.02 474.95 47.38 474.94 46.56C474.94 44.53 474.15 41.43 474.15 39.33C474.15 38.68 474.23 38.12 474.43 37.72C474.45 37.69 474.46 37.67 474.47 37.64C475.68 35.53 480.06 37.19 482.03 35.53C483.99 33.87 486.86 30.39 487.16 25.86C487.17 25.78 487.17 25.7 487.17 25.62C487.17 21.35 478.99 21.81 478.1 15.28C478.09 15.23 478.09 15.18 478.08 15.13C477.53 10.4 481.58 7.09 485.28 7.07C485.29 7.07 485.3 7.07 485.3 7.07C485.31 7.07 485.31 7.07 485.31 7.07C486.73 7.07 488.09 7.56 489.13 8.64C492.91 12.56 492.07 20.19 496.53 20.42C496.54 20.42 496.55 20.42 496.56 20.42C496.7 20.43 496.83 20.43 496.95 20.43L496.96 20.43C496.96 20.43 496.96 20.43 496.96 20.43C500.88 20.43 500.27 17.38 502.92 14.35C502.94 14.33 502.95 14.31 502.97 14.29C502.99 14.27 503.01 14.25 503.03 14.23C503.04 14.22 503.04 14.21 503.05 14.2C503.06 14.19 503.08 14.17 503.1 14.15C503.12 14.12 503.15 14.09 503.18 14.06C503.19 14.05 503.2 14.04 503.21 14.03C503.22 14.02 503.23 14.02 503.23 14.01C503.94 13.3 504.57 13.05 505.13 13.04C505.13 13.04 505.14 13.04 505.15 13.04C505.15 13.04 505.15 13.04 505.16 13.04C505.67 13.04 506.12 13.25 506.54 13.49C506.54 13.49 506.54 13.49 506.54 13.49C506.56 13.5 506.57 13.51 506.59 13.52C506.6 13.53 506.61 13.54 506.62 13.54C506.63 13.55 506.64 13.55 506.65 13.56L506.65 13.56C506.67 13.56 506.68 13.57 506.7 13.59C506.72 13.6 506.74 13.61 506.76 13.62C507.23 13.91 507.64 14.2 508.02 14.21C508.03 14.21 508.03 14.21 508.04 14.21C508.05 14.21 508.05 14.21 508.06 14.21C508.25 14.2 508.43 14.12 508.61 13.94C508.62 13.93 508.62 13.93 508.62 13.92C508.63 13.91 508.64 13.91 508.65 13.9C508.65 13.89 508.66 13.89 508.66 13.88C508.67 13.87 508.67 13.87 508.68 13.86C508.68 13.86 508.69 13.85 508.69 13.85C508.7 13.84 508.7 13.84 508.71 13.83C508.84 13.66 508.89 13.45 508.89 13.21C508.89 11.98 507.44 9.87 507.44 7.29C507.44 5.63 508.03 3.78 509.98 1.84C511.22 0.6 512.35 0.09 513.41 0.09C517 0.09 519.82 5.9 523.61 9.05C523.61 9.06 523.61 9.06 523.61 9.06C523.63 9.07 523.65 9.09 523.67 9.11C523.69 9.13 523.72 9.15 523.75 9.17C523.75 9.17 523.75 9.17 523.75 9.17C523.81 9.22 523.87 9.27 523.93 9.32C523.93 9.32 523.94 9.32 523.94 9.32C523.97 9.35 524 9.37 524.03 9.39C524.81 9.99 525.65 10.43 526.53 10.75C526.55 10.75 526.57 10.76 526.58 10.76C526.58 10.76 526.59 10.77 526.59 10.77C527.38 11.05 528.2 11.22 529.03 11.33C529.04 11.33 529.04 11.33 529.05 11.34C529.05 11.34 529.06 11.34 529.06 11.34C529.72 11.42 530.4 11.46 531.07 11.46C531.11 11.46 531.15 11.46 531.19 11.46C531.2 11.46 531.2 11.46 531.21 11.46C531.24 11.46 531.26 11.46 531.29 11.46C531.3 11.46 531.32 11.46 531.33 11.46C531.35 11.46 531.37 11.46 531.38 11.46C531.4 11.46 531.41 11.46 531.43 11.46C531.45 11.46 531.46 11.46 531.48 11.46C531.49 11.46 531.51 11.46 531.53 11.46C531.54 11.46 531.56 11.46 531.57 11.46C531.59 11.46 531.61 11.46 531.62 11.46C531.64 11.46 531.65 11.46 531.67 11.46C531.68 11.46 531.7 11.46 531.72 11.45C531.73 11.45 531.74 11.45 531.76 11.45C531.79 11.45 531.83 11.45 531.87 11.45C531.88 11.45 531.89 11.45 531.9 11.45C531.92 11.45 531.94 11.45 531.96 11.45C531.98 11.45 531.99 11.45 532 11.45C532.01 11.45 532.04 11.45 532.06 11.44C532.07 11.44 532.08 11.44 532.09 11.44C532.11 11.44 532.13 11.44 532.15 11.44C532.16 11.44 532.17 11.44 532.18 11.44C532.2 11.44 532.23 11.44 532.25 11.44C532.25 11.44 532.26 11.44 532.27 11.44C532.3 11.44 532.32 11.43 532.34 11.43C532.34 11.43 532.35 11.43 532.35 11.43C532.43 11.43 532.51 11.42 532.59 11.42C532.6 11.42 532.6 11.42 532.61 11.42C532.64 11.42 532.66 11.41 532.68 11.41C532.69 11.41 532.7 11.41 532.7 11.41C532.73 11.41 532.75 11.41 532.77 11.41C532.78 11.41 532.79 11.41 532.79 11.41C532.82 11.4 532.84 11.4 532.87 11.4C532.87 11.4 532.88 11.4 532.88 11.4C532.99 11.39 533.11 11.39 533.22 11.37L533.22 11.37C533.25 11.37 533.28 11.37 533.3 11.37C533.31 11.37 533.31 11.37 533.32 11.37C533.34 11.36 533.37 11.36 533.4 11.36C533.4 11.36 533.4 11.36 533.41 11.36C533.44 11.36 533.46 11.36 533.49 11.35C533.49 11.35 533.49 11.35 533.49 11.35C533.61 11.34 533.72 11.33 533.84 11.32L533.84 11.32C533.87 11.32 533.89 11.31 533.92 11.31C533.92 11.31 533.93 11.31 533.94 11.31C533.96 11.31 533.98 11.31 534.01 11.3C534.01 11.3 534.02 11.3 534.03 11.3C534.05 11.3 534.08 11.3 534.1 11.29L534.11 11.29C534.28 11.28 534.45 11.26 534.63 11.24L534.63 11.24C534.66 11.23 534.69 11.23 534.72 11.23L534.72 11.23C534.83 11.21 534.95 11.2 535.06 11.19C535.06 11.19 535.06 11.19 535.07 11.19C535.09 11.18 535.12 11.18 535.14 11.18C535.15 11.18 535.15 11.18 535.16 11.17C535.18 11.17 535.21 11.17 535.23 11.16C535.24 11.16 535.24 11.16 535.25 11.16C535.27 11.16 535.3 11.16 535.32 11.15C535.33 11.15 535.34 11.15 535.35 11.15C535.37 11.15 535.39 11.14 535.41 11.14C535.42 11.14 535.44 11.14 535.45 11.14C535.48 11.13 535.51 11.13 535.54 11.13C535.55 11.12 535.57 11.12 535.59 11.12C535.6 11.12 535.61 11.11 535.63 11.11C535.65 11.11 535.66 11.11 535.69 11.11C535.7 11.1 535.71 11.1 535.72 11.1C535.74 11.1 535.76 11.1 535.79 11.09C535.79 11.09 535.8 11.09 535.81 11.09C535.84 11.09 535.86 11.08 535.89 11.08C535.9 11.08 535.9 11.08 535.9 11.08C536.5 11 537.09 10.91 537.66 10.83C538.43 17.44 538.47 23.51 536.16 24.13C530.92 25.54 524.88 22.72 524.5 29.78C524.12 36.82 529.01 30.38 529.92 39.14C530.83 47.9 509.67 43.97 507.56 52.13C505.44 60.29 517.17 64.23 510.58 68.45C503.99 72.67 495.78 69.96 493.66 77.17C491.54 84.39 498.8 81.44 495.78 90.81C492.75 100.18 487.8 93.11 488.09 105.24C488.39 117.37 510.18 124.85 511.97 141.37C512.25 143.94 512.55 146.62 512.71 149.36C511.91 153.39 510.96 157 509.98 158.35C508.84 159.91 506.94 160.77 505.24 160.82C505.24 160.82 505.23 160.82 505.23 160.82Z"/>
		<path id="Path 28" class="shp1" d="M464.7 365.37C457.71 364.04 450.37 362.27 442.69 359.96C430.95 319.9 415.69 276.18 415.67 245.41C415.67 241.85 415.87 238.47 416.3 235.29C422.14 192.4 457.19 185.42 457.19 185.42L480.95 182.28C480.95 182.28 480.95 182.28 480.95 182.28C482.48 184.46 484.08 186.87 485.72 189.47C485.72 189.47 485.72 189.47 485.72 189.47C483.47 190.48 481.04 191.45 478.41 192.39C473.39 194.19 468.54 196.8 464.03 200.19C461.72 196.87 458.96 194.9 455.45 194.9C454.57 194.9 453.64 195.02 452.65 195.28C415.22 205.25 420.51 246.52 426.55 271.3C431.64 292.17 455.36 343.56 464.7 365.37Z"/>
		<path id="Path 29" class="shp3" d="M509.25 549.73C504.66 549.73 499.56 546.24 495.7 536.59C495.18 535.27 494.79 534.01 494.53 532.79L518.55 532.79C518.84 537.1 519.13 541.5 517.86 544.54L514.14 537.08L514.14 548.39C512.64 549.23 510.98 549.73 509.25 549.73Z"/>
		<path id="Path 30" class="shp13" d="M463.69 380.17C449.33 376.94 441.36 372.83 441.36 372.83L442.69 359.96C450.37 362.27 457.71 364.04 464.7 365.37C466.44 369.45 467.69 372.5 468.21 374.12C468.21 374.12 466.39 376.11 463.69 380.17Z"/>
		<path id="Path 31" class="shp11" d="M509.18 506.79C509.18 506.79 508.98 505.28 502.78 493.6C503.11 493.97 503.74 494.25 504.59 494.45C506.19 497.74 508.5 502.91 509.18 506.79C509.18 506.79 509.18 506.79 509.18 506.79Z"/>
		<path id="Path 32" class="shp3" d="M509.18 506.79C508.5 502.91 506.19 497.74 504.59 494.45C505.82 494.75 507.53 494.89 509.52 494.89C510.29 494.89 511.09 494.87 511.93 494.83C511.95 494.96 511.96 495.09 511.97 495.22C512.98 505.56 509.32 506.74 509.18 506.79Z"/>
		<path id="Path 33" class="shp14" d="M509.52 494.89C507.53 494.89 505.82 494.75 504.59 494.45C503.74 494.25 503.11 493.97 502.78 493.6C502.7 493.44 502.61 493.28 502.53 493.11C498.59 485.72 491.59 467.79 485.81 448.94C489.66 447.82 494.21 446.51 499.13 445.09C508.81 469.31 511.02 485.6 511.93 494.83C511.09 494.87 510.29 494.89 509.52 494.89ZM476.67 409.93C472.78 386.29 468.21 374.12 468.21 374.12C467.69 372.5 466.44 369.45 464.7 365.37C455.36 343.56 431.64 292.17 426.55 271.3C420.51 246.52 415.22 205.25 452.65 195.28C453.64 195.02 454.57 194.9 455.45 194.9C458.96 194.9 461.72 196.87 464.03 200.19C434.58 222.32 420.09 277.53 471.03 355.07C479.71 368.28 473.97 377.49 484.12 408.23L476.67 409.93Z"/>
		<path id="Path 34" class="shp1" d="M532.42 330.53C529.84 330.53 527.75 328.44 527.75 325.87C527.75 323.29 529.84 321.2 532.42 321.2C534.99 321.2 537.08 323.29 537.08 325.87C537.08 328.44 534.99 330.53 532.42 330.53ZM531.48 344.95C528.9 344.95 526.81 342.86 526.81 340.28C526.81 337.71 528.9 335.62 531.48 335.62C534.06 335.62 536.14 337.71 536.14 340.28C536.14 342.86 534.06 344.95 531.48 344.95ZM531.48 359.36C528.9 359.36 526.81 357.27 526.81 354.7C526.81 352.12 528.9 350.03 531.48 350.03C534.06 350.03 536.14 352.12 536.14 354.7C536.14 357.27 534.06 359.36 531.48 359.36Z"/>
		<path id="Path 35" class="shp9" d="M121.43 414.11L201.69 414.11L196.26 625.01C196.26 625.01 156.37 488.44 146.1 461.85C139.88 445.76 127.03 431.67 117.85 423.04C114.44 419.84 116.75 414.11 121.43 414.11Z"/>
		<path id="Path 36" class="shp8" d="M254.83 332.66L305.92 341.45L311.66 337.62L330.7 358.67L365.64 528.93L295.75 553.7L241.74 340.51L254.83 332.66Z"/>
		<path id="Path 37" class="shp15" d="M571.14 836.05L583.22 858.11L675.38 801.91C675.38 801.91 672.06 795.87 655.74 804.02C639.42 812.18 619.18 821.25 601.96 820.04L594.56 818.68L571.14 836.05Z"/>
		<path id="Path 38" class="shp5" d="M591.08 862.95L675.38 808.56L675.38 801.91L583.22 858.11L591.08 862.95ZM594.56 818.68L588.67 808.19L563.69 823.9L571.22 835.88L594.56 818.68Z"/>
		<path id="Path 39" class="shp15" d="M389.54 825.44L384.51 855.86L494.29 858.88C494.29 858.88 496.51 854.45 480.59 851.83C464.68 849.21 429.03 840.55 424.39 833.09C419.76 825.64 389.54 825.44 389.54 825.44Z"/>
		<path id="Path 40" class="shp8" d="M552.38 392.69L572.02 388.16L578.67 418.07L553.79 424.03L552.38 392.69Z"/>
		<path id="Path 41" class="shp5" d="M387.03 865.73L489.46 865.73L494.29 858.88L384.51 855.86L387.03 865.73Z"/>
		<path id="Path 42" class="shp16" d="M572.02 388.16C572.02 388.16 580.86 387.56 586.18 379.56C592.23 370.46 588.7 359.99 590.2 356.22C591.8 352.19 599.12 359.04 597.3 364.86C595.65 370.12 600.63 379.1 608.58 375.47C616.54 371.84 630.06 367.25 633.86 365.77C639.75 363.46 641.74 368.03 636.87 370.8C634.64 372.07 632.46 374.34 624.6 378.03C616.73 381.73 626.11 399.44 618.42 408.06C611.11 416.26 599.51 416.42 595.38 416.63C591.25 416.83 578.67 416.86 578.67 416.86L572.02 388.16Z"/>
		<path id="Path 43" class="shp17" d="M316.79 326.82L340.78 342.22L346.69 379.26C346.94 380.8 346.03 382.29 344.55 382.79L334.42 386.16L345.83 390.66C347.07 391.15 347.88 392.38 347.84 393.72L345.64 470.68L316.79 326.82Z"/>
		<path id="Path 44" class="shp5" d="M264.01 318.97C264.01 318.97 284.56 343.59 302.28 345.56L302.28 366.91C302.28 366.91 273.04 354.82 254.83 332.66L264.01 318.97Z"/>
		<path id="Path 45" class="shp17" d="M266.38 396.76L229.3 349.94C227.33 347.45 228.04 343.79 230.8 342.22L259.26 326.06C259.26 326.06 288.46 371.96 299.14 399.3C308.28 422.71 309.61 480.27 309.61 480.27C309.61 480.27 295.58 427.51 282.35 411.24C280.92 409.48 280.79 407.01 282.01 405.09L289.06 394.06L271.73 398.48C269.76 398.98 267.69 398.31 266.38 396.76Z"/>
		<path id="Path 46" class="shp4" d="M306.26 360.26L323.1 494.89L344.58 487.1L315.69 356.87L306.26 360.26Z"/>
		<path id="Path 47" class="shp16" d="M427.61 499.95L490.15 509.51C490.15 509.51 494.79 515.63 477.27 517.45C459.74 519.26 427.61 517.8 427.61 517.8L427.61 499.95Z"/>
		<path id="Path 48" class="shp4" d="M302.28 346.55C302.28 346.55 304.6 343.47 309.38 344.92L318.93 352.51C318.93 352.51 313.39 364.21 302.28 358.85L302.28 346.55Z"/>
		<path id="Path 49" class="shp8" d="M312.36 318.97L316.79 326.82C316.79 326.82 324.61 341.12 322.51 356.28L308.51 344.22C308.51 344.22 314.37 329.04 312.36 318.97Z"/>
		<path id="Path 50" class="shp18" d="M575.18 414.96C575.18 416.97 573.55 418.59 571.55 418.59C569.55 418.59 567.92 416.97 567.92 414.96C567.92 412.96 569.55 411.34 571.55 411.34C573.55 411.34 575.18 412.96 575.18 414.96Z"/>
		<path id="Path 51" class="shp8" d="M254.83 332.66L305.92 341.45L311.66 337.62L330.7 358.67L365.64 528.93L295.75 553.7L241.74 340.51L254.83 332.66Z"/>
		<path id="Path 52" class="shp18" d="M343.62 517.45L478.99 564.58C478.99 564.58 498.93 572.44 507.09 592.68C515.25 612.93 590.79 808.72 590.79 808.72L560.57 828.06L428.23 622.59L406.92 607.34L313.41 540.41L343.62 517.45Z"/>
		<path id="Path 53" class="shp16" d="M347.38 233.72L283.93 224.45L288.63 249.34L263.18 253.26L269.23 292.13L261.37 332.22L299.64 359.21C299.64 359.21 318.58 331.55 314.55 325.57C310.67 319.81 315.21 301.46 318.96 289.07C326.89 290.1 334.7 289.42 338.72 284.28C348.79 271.39 347.38 233.72 347.38 233.72Z"/>
		<path id="Path 54" class="shp18" d="M552.38 392.69L458.6 414.04L376.08 363.66L335.82 339.21L329.47 379.1L337.63 395.71L351.53 525.94C351.53 525.94 366.34 565.82 373.29 564.61C380.24 563.41 395.04 549.51 395.04 549.51C386.89 542.86 359.99 515.97 359.99 515.97L368.77 432.85C369.68 424.23 378.83 419.07 386.67 422.79C402.73 430.41 422.45 439.96 434.83 446.68C458.6 459.57 467.79 453.97 473.8 452.36C479.82 450.75 560.24 427.34 560.24 427.34L552.38 392.69Z"/>
		<path id="Path 55" class="shp19" d="M279.84 334.32C279.47 334.02 279.09 333.72 278.73 333.41C284.28 327.1 279.89 317.8 272.72 304.67C273.25 303.9 273.74 303.04 274.21 302.2C276.63 297.97 278.04 290.52 278.04 290.52C278.04 290.52 279.65 282.46 273.61 279.64C267.57 276.82 267.97 267.76 269.18 260.1C269.8 256.17 271.75 254.31 273.75 254.31C275.64 254.31 277.56 255.97 278.44 259.1C280.26 265.54 278.44 261.11 282.67 284.48C284.59 295.05 289.97 301.25 295.99 304.85C295.88 308.6 294.95 312.33 293.03 318.33C291.33 323.65 287.19 330.2 279.84 334.32ZM266.58 305.64L266.59 305.56L266.58 305.64ZM299.41 276.8C299.04 275.73 298.89 274.35 298.99 272.59C299.39 265.34 291.13 259.5 289.12 250.84C287.1 242.18 287.91 235.33 291.74 232.31C292.8 231.47 294.07 231.1 295.57 231.1C299.45 231.1 304.85 233.54 312.08 236.34C321.84 240.11 330.05 241.69 336.9 241.69C340.86 241.69 344.36 241.16 347.44 240.23C347.43 242.06 347.38 244.2 347.29 246.53C345.25 247.08 341.69 247.79 336.87 247.79C332.97 247.79 328.25 247.32 322.87 245.91C320.18 245.21 317.82 244.88 315.78 244.88C305.58 244.88 303.18 253 305.52 262.23C306.98 267.94 303.11 272.28 299.41 276.8Z"/>
		<path id="Path 56" class="shp4" d="M278.04 290.52C278.04 290.52 276.63 297.97 274.21 302.2C271.8 306.43 268.98 311.47 263.13 300.39C257.29 289.31 249.24 269.57 249.84 241.98C250.44 214.38 255.18 223.72 258.7 214.38C263.94 200.48 291.76 193.27 304.83 192.02C315.33 191.01 322.57 194.35 326.65 195.44C331.93 196.84 333.98 194.35 337.34 191.87C340.58 189.47 345.06 187.06 354.87 188.17C370.21 189.91 369.87 207.17 365.64 221.66C361.49 235.88 346.21 249.54 312.08 236.34C302.06 232.46 295.57 229.29 291.74 232.31C287.91 235.33 287.1 242.18 289.12 250.84C291.13 259.5 299.39 265.34 298.99 272.59C298.59 279.85 302.41 280.65 307.85 280.25C313.29 279.85 321.43 273 331.1 274C340.77 275.01 342.4 277.8 342.4 289.48C342.4 301.17 323.33 309.46 315.69 309.66C308.05 309.86 286.9 307.84 282.67 284.48C278.44 261.11 280.26 265.54 278.44 259.1C276.63 252.65 270.39 252.45 269.18 260.1C267.97 267.76 267.57 276.82 273.61 279.64C279.65 282.46 278.04 290.52 278.04 290.52Z"/>
		<path id="Path 57" class="shp6" d="M571.14 836.05L583.22 858.11L675.38 801.91C675.38 801.91 672.06 795.87 655.74 804.02C639.42 812.18 619.18 821.25 601.96 820.04L594.56 818.68L571.14 836.05Z"/>
		<path id="Path 58" class="shp5" d="M591.08 862.95L675.38 808.56L675.38 801.91L583.22 858.11L591.08 862.95Z"/>
		<path id="Path 59" class="shp8" d="M594.56 818.68L588.67 808.19L563.69 823.9L571.22 835.88L594.56 818.68Z"/>
		<path id="Path 60" class="shp17" d="M448.33 613.15C442.31 678.45 426.01 837.48 426.01 837.48L390.55 837.48L363.56 642.49L220.95 644.9L195.57 625.97L309.58 541.77L426.68 580.2C440.7 584.8 449.68 598.46 448.33 613.15Z"/>
		<path id="Path 61" class="shp18" d="M244.05 334.7C244.05 334.7 229.68 343.16 216.08 351.26C204.47 358.18 195.32 366.71 189.28 392.69C183.24 418.68 176.08 479.88 179.41 538.93C181.06 568.29 186.26 607.82 196.33 624.74C206.4 641.66 233.8 635.22 256.76 622.73C279.72 610.24 329.47 573.58 329.47 573.58L297.46 418.88L290.82 391.35L244.05 334.7Z"/>
		<path id="Path 62" class="shp6" d="M389.54 825.44L384.51 855.86L494.29 858.88C494.29 858.88 496.51 854.45 480.59 851.83C464.68 849.21 429.03 840.55 424.39 833.09C419.76 825.64 389.54 825.44 389.54 825.44Z"/>
		<path id="Path 63" class="shp17" d="M316.79 326.82L340.78 342.22L346.69 379.26C346.94 380.8 346.03 382.29 344.55 382.79L334.42 386.16L345.83 390.66C347.07 391.15 347.88 392.38 347.84 393.72L345.64 470.68L316.79 326.82Z"/>
		<path id="Path 64" class="shp5" d="M264.01 318.97C264.01 318.97 284.56 343.59 302.28 345.56L302.28 366.91C302.28 366.91 273.04 354.82 254.83 332.66L264.01 318.97Z"/>
		<path id="Path 65" class="shp17" d="M266.38 396.76L229.3 349.94C227.33 347.45 228.04 343.79 230.8 342.22L259.26 326.06C259.26 326.06 288.46 371.96 299.14 399.3C308.28 422.71 309.61 480.27 309.61 480.27C309.61 480.27 295.58 427.51 282.35 411.24C280.92 409.48 280.79 407.01 282.01 405.09L289.06 394.06L271.73 398.48C269.76 398.98 267.69 398.31 266.38 396.76Z"/>
		<path id="Path 66" class="shp8" d="M428.35 496.29L411.93 494.96L411.91 517.65L428.05 517.82L428.35 496.29Z"/>
		<path id="Path 67" class="shp6" d="M306.26 360.26C306.26 360.26 315.52 392.52 314.46 425.88C313.41 459.23 323.1 494.89 323.1 494.89L342.4 487.89L315.69 356.87L306.26 360.26Z"/>
		<path id="Path 68" class="shp18" d="M302.28 480.58L413.88 493.41L413.88 517.58L278.11 519.6C278.11 519.6 271.46 524.23 259.58 506.7C247.69 489.18 211.03 442.64 201.49 421.98C185.37 387.08 218.25 347 235.85 368.47C245.76 380.57 288.46 436.18 302.28 480.58Z"/>
		<path id="Path 69" class="shp6" d="M302.28 345.56C302.28 345.56 306.48 345.69 308.51 344.22L318.93 352.51C318.93 352.51 313.39 364.21 302.28 358.85L302.28 345.56Z"/>
		<path id="Path 70" class="shp8" d="M312.91 319.46L316.79 326.82C316.79 326.82 324.61 341.12 322.51 356.28L308.51 344.22C308.51 344.22 313.66 329.2 312.91 319.46Z"/>
		<path id="Path 71" class="shp1" d="M220.95 644.9L203.01 631.53L203.01 631.53L220.95 644.9ZM200.01 629.29L195.57 625.97L200.01 629.28C200.01 629.28 200.01 629.29 200.01 629.29ZM195.57 625.97L196.61 625.2L195.57 625.97ZM432.33 548.34L420.71 544.29L432.33 548.34Z"/>
		<path id="Path 72" class="shp20" d="M452.1 555.22C452.1 555.22 452.1 555.22 452.1 555.22L432.33 548.34L452.1 555.22Z"/>
		<path id="Path 73" class="shp1" d="M321.36 534.37L321.04 532.79L323.43 532.79L321.36 534.37Z"/>
		<path id="Path 74" class="shp21" d="M419.3 577.78L376.19 563.63C383.68 560.17 395.04 549.51 395.04 549.51C391.42 546.55 384.1 539.6 377.08 532.79L387.7 532.79L420.71 544.29L432.33 548.34L452.1 555.22C452.09 555.22 452.08 555.22 452.06 555.22C450.98 555.22 430.06 555.51 419.3 577.78ZM368.36 561.06L323.86 546.46L321.36 534.37L323.43 532.79L354.21 532.79C357.56 541.06 363.44 554.64 368.36 561.06ZM376.19 563.63L368.36 561.06C363.44 554.64 357.56 541.06 354.21 532.79L377.08 532.79C384.1 539.6 391.42 546.55 395.04 549.51C395.04 549.51 383.68 560.17 376.19 563.63Z"/>
		<path id="Path 75" class="shp1" d="M230.75 342.25C230.75 342.25 230.75 342.25 230.76 342.25C230.75 342.25 230.75 342.25 230.75 342.25ZM230.77 342.24C230.78 342.24 230.79 342.23 230.8 342.22C230.79 342.23 230.78 342.24 230.77 342.24ZM259.26 326.06L259.26 326.06L263.95 319.06L266.58 305.64L263.95 319.06L259.26 326.06Z"/>
		<path id="Path 76" class="shp22" d="M278.73 333.41C270.2 326.39 264.01 318.97 264.01 318.97L263.95 319.06L266.58 305.64L266.59 305.56C267.66 306.65 268.59 307.1 269.43 307.1C270.71 307.1 271.77 306.04 272.72 304.67C279.89 317.8 284.28 327.1 278.73 333.41Z"/>
		<path id="Path 77" class="shp1" d="M258.7 214.38C263.94 200.48 291.74 193.03 304.83 192.02C291.76 193.27 263.94 200.48 258.7 214.38Z"/>
		<path id="Path 78" class="shp13" d="M269.43 307.1C268.59 307.1 267.66 306.65 266.59 305.56L266.6 305.54C265.57 304.48 264.43 302.85 263.13 300.39C257.93 290.52 250.97 273.79 249.94 250.75C249.85 248.83 249.81 246.86 249.81 244.86C249.81 243.91 249.82 242.95 249.84 241.98C250.44 214.38 255.18 223.72 258.7 214.38C263.94 200.48 291.76 193.27 304.83 192.02C305.55 191.96 306.3 191.94 307.06 191.94C311.18 191.94 315.82 192.71 320.54 193.83C315.69 219.1 280.94 201.8 268.89 224.45C260.14 240.92 255.28 272.11 265.84 292.04C268.25 296.6 270.6 300.8 272.72 304.67C271.77 306.04 270.71 307.1 269.43 307.1Z"/>
		<path id="Path 79" class="shp23" d="M220.95 644.9L203.01 631.53C206.99 633.93 211.86 634.99 217.26 634.99C222.95 634.99 229.23 633.81 235.66 631.82C239.63 636.59 243.94 640.9 248.54 644.44L220.95 644.9ZM200.01 629.28L195.57 625.97L196.61 625.2C197.59 626.76 198.73 628.12 200.01 629.28ZM419.3 577.78C384.59 566.39 355.08 566.76 327.81 565.52L323.86 546.46L368.36 561.06L376.19 563.63L419.3 577.78L419.3 577.78Z"/>
		<path id="Path 80" class="shp21" d="M217.26 634.99C211.86 634.99 206.99 633.93 203.01 631.53L203.01 631.53L202.18 630.9C201.58 630.5 200.99 630.08 200.44 629.61L200.01 629.29C200.01 629.29 200.01 629.28 200.01 629.28C198.73 628.12 197.59 626.76 196.61 625.2L196.64 625.18L196.33 624.74C196.31 624.71 196.29 624.67 196.27 624.64C196.19 624.5 196.11 624.37 196.03 624.23C186.15 607.04 181.05 568 179.41 538.93C178.82 528.55 178.56 518.1 178.56 507.79C178.56 459.45 184.3 414.11 189.28 392.69C195.32 366.71 204.47 358.18 216.08 351.26C220.65 348.55 225.29 345.79 229.45 343.33C227.86 345.14 227.7 347.92 229.3 349.94L231.38 352.57C224.53 356.19 218.01 360.79 212.66 366.91C212.55 367.03 212.45 367.15 212.34 367.27C200.17 377.16 191.6 400.55 201.49 421.98C204.76 429.07 211.24 439.22 218.81 450.19C219.19 450.77 219.58 451.33 219.97 451.88C228.35 463.93 237.9 476.84 245.9 487.71C251.21 495.03 255.86 501.43 258.82 505.59C259.08 505.98 259.34 506.35 259.58 506.7C260.21 507.64 260.84 508.51 261.44 509.33C263.87 512.89 266.12 515.59 268.97 517.33C269.02 517.37 269.07 517.41 269.12 517.45L240.93 517.45C240.93 525.92 247.8 532.79 256.28 532.79L321.04 532.79L321.36 534.37L323.86 546.46L327.81 565.52C297.44 564.15 269.85 560.79 240.93 536.99C231.8 529.47 224.85 526.46 219.6 526.46C204.85 526.46 203.47 550.16 204.8 564.64C206.03 577.89 217.37 609.84 235.66 631.82C229.23 633.81 222.95 634.99 217.26 634.99Z"/>
		<path id="Path 81" class="shp24" d="M267.44 339.32C262.63 331.35 259.29 326.11 259.26 326.06L263.95 319.06L264.01 318.97C264.01 318.97 270.2 326.39 278.73 333.41C278.51 333.66 278.27 333.9 278.03 334.14C275.96 336.12 272.21 337.71 267.44 339.32Z"/>
		<path id="Path 82" class="shp23" d="M231.38 352.57L229.3 349.94C227.7 347.92 227.86 345.14 229.45 343.33C229.48 343.31 229.51 343.29 229.54 343.27C229.88 342.89 230.27 342.53 230.75 342.25C230.75 342.25 230.75 342.25 230.76 342.25C230.76 342.25 230.76 342.25 230.77 342.24C230.78 342.24 230.79 342.23 230.8 342.22L259.26 326.06L259.26 326.06C259.29 326.11 262.63 331.35 267.44 339.32C257.82 342.56 244.04 345.88 231.38 352.57Z"/>
		<path id="Path 83" class="shp21" d="M269.16 517.45L269.12 517.45C269.07 517.41 269.02 517.37 268.97 517.33C269.03 517.37 269.1 517.41 269.16 517.45ZM261.44 509.33C260.84 508.51 260.21 507.64 259.58 506.7C259.34 506.35 259.08 505.98 258.82 505.59C259.95 507.18 260.84 508.44 261.42 509.3C261.43 509.31 261.44 509.32 261.44 509.33ZM245.9 487.71C237.9 476.84 228.35 463.93 219.97 451.88C219.99 451.89 220 451.91 220.01 451.93C227.73 462.72 237.63 476.33 245.9 487.71ZM218.81 450.19C211.24 439.22 204.76 429.07 201.49 421.98C191.6 400.55 200.17 377.16 212.34 367.27C193.2 389.74 204.83 429.38 218.81 450.19Z"/>
		<path id="Path 84" class="shp5" d="M365.64 655.23L365.64 645.56C365.64 635.2 356.74 627.09 346.42 628.06C314.91 631.01 253.77 636.49 233.91 636.49C206.71 636.49 195.86 628.42 190.28 605.35C184.77 582.61 145.24 418.28 116.22 418.21L116.22 425.33C116.22 426.6 116.67 427.83 117.44 428.84C120.42 432.72 128.35 445.26 136.01 476.35C145.68 515.63 183.14 631.06 183.14 631.06C183.14 631.06 193.42 654.02 221.82 655.23C250.22 656.44 365.64 655.23 365.64 655.23Z"/>
		<path id="Path 85" class="shp9" d="M240.93 517.45L1058.26 517.45C1058.26 525.92 1051.39 532.79 1042.91 532.79L256.28 532.79C247.8 532.79 240.93 525.92 240.93 517.45Z"/>
		<path id="Path 86" class="shp5" d="M1021.59 863.91L1014.34 863.91L1014.34 532.79L1021.59 532.79L1021.59 863.91ZM287.56 864.52L280.31 864.52L280.31 532.79L287.56 532.79L287.56 864.52Z"/>
		<path id="Path 87" class="shp0" d="M960.28 735.48C960.28 735.48 964.51 723.21 969.04 712.94C973.57 702.66 984.45 709.31 985.96 712.94C987.47 716.56 984.75 720.69 988.98 729.56C993.21 738.42 1015.85 754.25 1017.97 766.03C1020.09 777.81 1008.02 793.7 1010.14 810.02C1012.25 826.33 1017.97 835.04 1017.97 835.04C1017.97 835.04 989.03 830.47 981.3 802.38C973.57 774.27 979.36 742 981.3 735.48C983.24 728.95 979.46 718.53 975.38 717.77C971.3 717.02 965.11 735.48 965.11 735.48L960.28 735.48Z"/>
		<path id="Path 88" class="shp25" d="M929.36 735.48C929.36 735.48 925.5 706.35 925.74 681.21C926.01 652.3 925.39 640.37 935.91 637.73C945.11 635.41 971.15 629.54 990.79 611.72C1001.44 602.05 1006.53 596.87 1008.96 594.15C1010.35 592.59 1010.51 590.3 1009.4 588.54C1005.4 582.26 995.7 566.92 991.7 560.05C986.6 551.29 991.19 542.69 995.93 550.68L1014.86 582.59C1015.59 583.83 1017.34 583.95 1018.23 582.82C1023.23 576.4 1036.85 557.56 1040.67 538.18C1041.1 536.01 1040.66 533.78 1039.42 531.95C1035.08 525.55 1027.48 514.16 1018.63 508.53C1012.82 504.84 1015.93 499.66 1021.61 502.94C1025.58 505.23 1033.6 513.92 1038.06 518.94C1039.26 520.29 1041.5 519.54 1041.63 517.74C1042.61 504.13 1044.95 465.56 1041.25 449.76C1041.25 449.76 990.79 512.31 963.75 527.27C936.71 542.22 924.02 590.87 920.7 613.83C917.37 636.8 920.7 721.45 924.62 735.48L929.36 735.48ZM921.6 735.48C921.6 735.48 904.98 668.22 902.56 644.05C900.15 619.88 855.73 597.82 824.61 600.84C793.49 603.86 765.39 604.46 747.26 595.7C747.26 595.7 747.26 626.15 766.02 640C766.94 640.67 768.19 640.7 769.18 640.15C773.05 637.99 782.41 631.96 784.31 623.3C785.4 618.34 790.92 616.93 789.56 623.2C788.37 628.7 788.11 635 782.36 641.56C781.08 643.03 781.59 645.33 783.36 646.14C792.09 650.1 814.42 659.35 834.43 660.06C846.72 660.5 851.91 660.02 856.1 659.55C860.62 659.04 863.99 658.53 873.86 659.15C892.9 660.36 902.87 684.54 907.4 701.15C911.93 717.77 916.77 735.48 916.77 735.48L921.6 735.48ZM922.55 704.02C922.55 704.02 904.89 676.98 888.36 680C878.11 681.88 854.83 688.38 844.25 707.46C833.67 726.54 829.45 748.59 820.38 762.79C811.32 777 804.37 783.94 804.37 783.94C804.37 783.94 842.08 790.59 861.85 763.4C881.62 736.2 873.26 732.88 887.46 720.19C901.66 707.5 908 695.41 916.77 703.27C925.53 711.13 923.45 729.17 923.45 729.17L922.55 704.02Z"/>
		<path id="Path 89" class="shp8" d="M916.77 735.48L878.39 735.48L906.8 865.32L978.71 865.32L999.56 735.48L916.77 735.48Z"/>
		<path id="Path 90" class="shp1" d="M904.99 660.18C904.99 660.17 904.99 660.17 904.99 660.17C903.85 653.86 902.99 648.29 902.56 644.05C902.99 648.29 903.86 653.87 904.99 660.18ZM789.35 602.86C775.34 602.86 762.82 601.53 752.69 597.95C752.67 597.93 752.65 597.92 752.64 597.9C762.8 601.5 775.38 602.85 789.47 602.85C800.21 602.85 811.83 602.07 823.91 600.91C811.79 602.07 800.13 602.86 789.35 602.86ZM824.22 600.88C824.35 600.86 824.48 600.85 824.61 600.84C824.48 600.85 824.35 600.86 824.22 600.88Z"/>
		<path id="Path 91" class="shp26" d="M904.99 660.17C892.26 641.17 862.79 617.93 815.75 615.95C780.04 614.44 762.2 607.25 752.69 597.95C762.82 601.53 775.34 602.86 789.35 602.86C800.13 602.86 811.79 602.07 823.91 600.91C824.02 600.9 824.12 600.89 824.22 600.88C824.35 600.86 824.48 600.85 824.61 600.84C826.54 600.65 828.52 600.56 830.54 600.56C861.08 600.56 900.3 621.38 902.56 644.05C902.99 648.29 903.85 653.86 904.99 660.17Z"/>
		<path id="Path 92" fill-rule="evenodd" class="shp1" d="M919.36 639.74C919.47 628.71 919.88 619.44 920.7 613.83C919.88 619.44 919.47 628.71 919.36 639.74ZM1041.27 449.82C1041.27 449.82 1041.27 449.82 1041.26 449.82C1041.27 449.82 1041.27 449.82 1041.27 449.82Z"/>
		<path id="Path 93" class="shp26" d="M919.33 644.92C919.34 643.15 919.35 641.43 919.36 639.74C919.47 628.71 919.88 619.44 920.7 613.83C924.02 590.87 936.71 542.22 963.75 527.27C990.79 512.31 1041.25 449.76 1041.25 449.76C1041.26 449.78 1041.26 449.8 1041.26 449.82C1041.27 449.82 1041.27 449.82 1041.27 449.82C1042.34 454.44 1042.9 460.99 1043.13 468.29C1027.47 474.89 1010.45 486.44 1007.62 505.96C1002.18 543.43 964.71 536.78 962.18 576.06C959.98 610.36 927.17 620.24 919.33 644.92Z"/>
		<path id="Path 94" class="shp1" d="M911.03 735.48L878.39 735.48L906.8 865.32L978.71 865.32C867.92 860.79 938.16 772.94 911.03 735.48Z"/>
		<path id="Path 95" class="shp9" d="M0.1 865.32L1135.43 865.32C1135.43 865.32 1080.7 887.96 984.54 882.52C751.49 869.35 796.53 901.38 649.73 918.3C502.92 935.22 491.19 876.27 383.04 895.81C296.06 911.52 244.93 909.83 189.68 890.95C134.42 872.07 62.92 888.89 0.1 865.32Z"/>
		<path id="Path 96" class="shp8" d="M1000.65 410.77L684.99 410.77L750.77 227.38C753.9 218.64 762.19 212.81 771.47 212.81L1071.66 212.81L1000.65 410.77Z"/>
		<path id="Path 97" class="shp5" d="M987.65 447.02L687.33 447.02C679.86 447.02 674.64 439.61 677.17 432.57L684.99 410.78L1000.65 410.78L987.65 447.02Z"/>
		<path id="Path 98" class="shp1" d="M988.09 447.02L987.65 447.02L1071.66 212.81L1073.5 213.74C1078.26 216.12 1080.5 221.67 1078.72 226.69L1004.5 435.43C1002.03 442.38 995.45 447.02 988.09 447.02Z"/>
		<path id="Path 99" class="shp5" d="M844.74 447.02L865.46 508.75L940.13 508.75L918.92 447.02L844.74 447.02Z"/>
		<path id="Path 100" class="shp1" d="M780.6 508.75L780.6 517.45L953.76 517.45L929.81 447.02L918.92 447.02L940.13 508.75L780.6 508.75ZM1013.33 223.45L798.42 223.45L802.23 212.81L1017.14 212.81L1013.33 223.45Z"/>
		<path id="Path 101" class="shp9" d="M955.11 385.74L740.2 385.74L798.42 223.45L1013.33 223.45L955.11 385.74Z"/>
		<path id="Path 102" class="shp8" d="M897.26 378.36L797.61 378.36L818.78 319.35L918.43 319.35L897.26 378.36ZM920.15 314.57L820.49 314.57L836.12 270.99L935.78 270.99L920.15 314.57ZM978.3 266.93L837.58 266.93L851.72 227.51L992.44 227.51L978.3 266.93Z"/>
		<path id="Path 103" class="shp5" d="M841.97 254.68C841.97 254.68 872.79 229.04 903.86 242.63C934.94 256.22 980.09 227.51 980.09 227.51L851.72 227.51L841.97 254.68Z"/>
		<path id="Path 104" class="shp1" d="M840.26 242.72C837.25 251.11 828 257.92 819.6 257.92C811.21 257.92 806.84 251.11 809.85 242.72C812.86 234.32 822.11 227.51 830.51 227.51C838.91 227.51 843.28 234.32 840.26 242.72ZM853.9 285.64C852.1 290.68 846.55 294.76 841.51 294.76C836.48 294.76 833.86 290.68 835.66 285.64C837.47 280.6 843.02 276.52 848.05 276.52C853.09 276.52 855.71 280.6 853.9 285.64ZM836.48 334.21C834.67 339.25 829.13 343.33 824.09 343.33C819.05 343.33 816.44 339.25 818.24 334.21C820.05 329.18 825.6 325.09 830.63 325.09C835.67 325.09 838.29 329.18 836.48 334.21Z"/>
		<path id="Path 105" class="shp5" d="M920.88 281.82L860.3 281.82L862.2 276.52L922.78 276.52L920.88 281.82ZM824.06 276.29L802.1 276.29L804 270.99L825.95 270.99L824.06 276.29ZM824.06 285.24L798.89 285.24L800.79 279.94L825.95 279.94L824.06 285.24ZM812.34 294.18L795.68 294.18L797.58 288.88L814.23 288.88L812.34 294.18ZM811.91 303.12L792.47 303.12L794.37 297.83L813.81 297.83L811.91 303.12ZM903.46 330.39L842.87 330.39L844.77 325.09L905.35 325.09L903.46 330.39ZM888.01 373.44L827.43 373.44L840.71 336.43L901.29 336.43L888.01 373.44ZM917.75 290.53L857.17 290.53L859.07 285.24L919.65 285.24L917.75 290.53ZM890.8 299.24L854.05 299.24L855.94 293.95L892.7 293.95L890.8 299.24ZM722.14 307.2L721.95 307.2L746.86 238.28L722.14 307.2ZM752.34 223.95C756.14 217.15 763.36 212.81 771.32 212.81L771.47 212.81C763.46 212.81 756.2 217.15 752.34 223.95ZM768.38 307.2L722.14 307.2L746.86 238.28L750.88 227.16C751.28 226.04 751.77 224.97 752.34 223.95C756.2 217.15 763.46 212.81 771.47 212.81L802.23 212.81L798.42 223.45L893.27 223.45L798.42 223.45L768.38 307.2Z"/>
		<path id="Path 106" class="shp24" d="M893.27 223.45L798.42 223.45L802.23 212.81L897.03 212.81L893.27 223.45Z"/>
		<path id="Path 107" fill-rule="evenodd" class="shp27" d="M823.14 307.2L768.38 307.2L798.42 223.45L893.27 223.45L891.83 227.51L851.72 227.51L837.58 266.93L877.87 266.93L876.44 270.99L836.12 270.99L823.14 307.2ZM794.37 297.83L792.47 303.12L811.91 303.12L813.81 297.83L794.37 297.83ZM797.58 288.88L795.68 294.18L812.34 294.18L814.23 288.88L797.58 288.88ZM800.79 279.94L798.89 285.24L824.06 285.24L825.95 279.94L800.79 279.94ZM804 270.99L802.1 276.29L824.06 276.29L825.95 270.99L804 270.99ZM830.51 227.51C822.11 227.51 812.86 234.32 809.85 242.72C806.84 251.11 811.21 257.92 819.6 257.92C828 257.92 837.25 251.11 840.26 242.72C843.28 234.32 838.91 227.51 830.51 227.51Z"/>
		<path id="Path 108" fill-rule="evenodd" class="shp5" d="M863.62 307.2L823.14 307.2L836.12 270.99L876.44 270.99L874.48 276.52L862.2 276.52L860.3 281.82L872.61 281.82L871.4 285.24L859.07 285.24L857.17 290.53L869.52 290.53L868.31 293.95L855.94 293.95L854.05 299.24L866.44 299.24L863.62 307.2ZM848.05 276.52C843.02 276.52 837.47 280.6 835.66 285.64C833.86 290.68 836.48 294.76 841.51 294.76C846.55 294.76 852.1 290.68 853.9 285.64C855.71 280.6 853.09 276.52 848.05 276.52ZM877.87 266.93L837.58 266.93L841.97 254.68C842.14 254.55 861.33 238.65 884.65 238.65C885.71 238.65 886.78 238.69 887.85 238.75L877.87 266.93ZM841.97 254.68C841.97 254.68 841.97 254.68 841.97 254.68L851.72 227.51L841.97 254.68Z"/>
		<path id="Path 109" class="shp7" d="M841.97 254.68L851.72 227.51L891.83 227.51L887.85 238.75C886.78 238.69 885.71 238.65 884.65 238.65C861.23 238.65 841.97 254.68 841.97 254.68Z"/>
		<path id="Path 110" class="shp24" d="M819.6 257.92C811.21 257.92 806.84 251.11 809.85 242.72C812.86 234.32 822.11 227.51 830.51 227.51C838.91 227.51 843.28 234.32 840.26 242.72C837.25 251.11 828 257.92 819.6 257.92ZM841.51 294.76C836.48 294.76 833.86 290.68 835.66 285.64C837.47 280.6 843.02 276.52 848.05 276.52C853.09 276.52 855.71 280.6 853.9 285.64C852.1 290.68 846.55 294.76 841.51 294.76Z"/>
		<path id="Path 111" class="shp7" d="M872.61 281.82L860.3 281.82L862.2 276.52L874.48 276.52L872.61 281.82ZM824.06 276.29L802.1 276.29L804 270.99L825.95 270.99L824.06 276.29ZM824.06 285.24L798.89 285.24L800.79 279.94L825.95 279.94L824.06 285.24ZM812.34 294.18L795.68 294.18L797.58 288.88L814.23 288.88L812.34 294.18ZM811.91 303.12L792.47 303.12L794.37 297.83L813.81 297.83L811.91 303.12ZM869.52 290.53L857.17 290.53L859.07 285.24L871.4 285.24L869.52 290.53ZM866.44 299.24L854.05 299.24L855.94 293.95L868.31 293.95L866.44 299.24Z"/>
		<path id="Path 112" class="shp9" d="M1034.29 157.43L892.15 157.43L939.67 32.8L1081.81 32.8L1034.29 157.43Z"/>
		<path id="Path 113" fill-rule="evenodd" class="shp8" d="M941.19 76.22C946.02 63.56 960.24 53.26 972.9 53.26C980.2 53.26 985.4 56.67 987.58 61.99L988.93 61.18C993.22 71.67 985.6 86.96 971.94 95.26C966.15 98.77 960.2 100.47 954.93 100.47C947.75 100.47 941.85 97.32 939.38 91.26L940.72 90.45C939.11 86.53 939.14 81.59 941.19 76.22ZM971.52 56.9C960.86 56.9 948.89 65.56 944.83 76.22C943.1 80.74 943.08 84.9 944.43 88.19L946.19 87.12C949.3 94.73 959.89 96.03 969.79 90.02C979.7 84.01 985.22 72.92 982.11 65.31L983.87 64.24C982.04 59.77 977.65 56.9 971.52 56.9Z"/>
		<path id="Path 114" class="shp1" d="M954.9 100.49L957.44 93.81C967.14 93.81 978.04 85.92 981.74 76.22C985.44 66.52 980.56 58.63 970.86 58.63L973.4 51.95C986.78 51.95 993.52 62.84 988.41 76.22C983.31 89.6 968.28 100.49 954.9 100.49Z"/>
		<path id="Path 115" fill-rule="evenodd" class="shp8" d="M1017.87 99.18C1005.21 99.18 998.83 88.88 1003.66 76.22C1008.49 63.56 1022.71 53.26 1035.38 53.26C1035.38 53.26 1035.38 53.26 1035.38 53.26L1035.87 51.95C1049.25 51.95 1055.99 62.84 1050.89 76.22C1045.78 89.6 1030.75 100.49 1017.37 100.49L1017.87 99.18C1017.87 99.18 1017.87 99.18 1017.87 99.18ZM1033.99 56.9C1023.33 56.9 1011.36 65.56 1007.3 76.22C1003.24 86.87 1008.6 95.54 1019.25 95.54C1019.25 95.54 1019.25 95.54 1019.25 95.54L1019.91 93.81C1029.61 93.81 1040.51 85.92 1044.21 76.22C1047.91 66.52 1043.03 58.63 1033.33 58.63L1033.99 56.9C1033.99 56.9 1033.99 56.9 1033.99 56.9Z"/>
		<path id="Path 116" class="shp1" d="M1034.91 94.95L1032.63 89.8C1037.98 86.44 1042.2 81.49 1044.21 76.22C1047.91 66.52 1043.03 58.63 1033.33 58.63L1035.87 51.95C1049.25 51.95 1055.99 62.84 1050.89 76.22C1048.11 83.49 1042.29 90.31 1034.91 94.95ZM965.08 122.08L917.8 122.08L919.93 116.5L967.2 116.5L965.08 122.08Z"/>
		<path id="Path 117" class="shp8" d="M961.49 131.48L914.22 131.48L916.34 125.91L963.62 125.91L961.49 131.48ZM942.1 140.88L910.63 140.88L912.76 135.31L944.23 135.31L942.1 140.88ZM1028.88 122.08L981.61 122.08L983.73 116.5L1031.01 116.5L1028.88 122.08ZM1007.91 131.48L978.03 131.48L980.15 125.91L1010.03 125.91L1007.91 131.48Z"/>
		<path id="Path 118" class="shp9" d="M828.28 243.56L660.94 243.56L700.45 131.94L867.79 131.94L828.28 243.56Z"/>
		<path id="Path 119" class="shp8" d="M765.86 185.05C759.35 203.41 739.2 218.29 720.84 218.29C702.48 218.29 692.88 203.41 699.38 185.05C705.89 166.69 726.04 151.81 744.4 151.81C762.76 151.81 772.37 166.69 765.86 185.05Z"/>
		<path id="Path 120" class="shp1" d="M746.45 177.37C742.54 188.42 734.93 195.58 728.68 195.58C722.42 195.58 719.92 188.32 723.8 177.37C726.02 171.11 732.89 166.04 739.14 166.04C745.4 166.04 748.67 171.11 746.45 177.37ZM701.06 208.87C704.98 214.69 711.86 218.28 720.87 218.28C729.88 218.28 739.31 214.69 747.35 208.87C747.26 197.53 709.19 197.53 701.06 208.87ZM837.35 157.38L790.08 157.38L792.2 151.81L839.48 151.81L837.35 157.38Z"/>
		<path id="Path 121" class="shp8" d="M833.77 166.78L786.5 166.78L788.62 161.21L835.89 161.21L833.77 166.78ZM814.38 176.19L782.91 176.19L785.03 170.61L816.51 170.61L814.38 176.19ZM818.77 206.13L771.49 206.13L773.62 200.56L820.89 200.56L818.77 206.13ZM799.38 215.54L767.91 215.54L770.03 209.96L801.5 209.96L799.38 215.54Z"/>
	</g>
</svg>